<svg width="1512" height="982" fill="none" xmlns="http://www.w3.org/2000/svg"><g clip-path="url(#prefix__clip0_69_8532)"><path fill="#00174B" d="M0 0h1512v982H0z"/><g filter="url(#prefix__filter0_f_69_8532)"><path fill-rule="evenodd" clip-rule="evenodd" d="M1272.34-225.213c184.56-31.713 409.34-63.039 535.75 72.341 125.53 134.437 60.18 346.769 21.91 524.903-29.36 136.693-123.84 235.293-209.26 347.198-112.87 147.844-171.77 396.981-360.42 399.041-188.28 2.06-234.75-261.045-368.15-391.081C755.757 594.22 479.969 548.303 482.381 359.976 484.793 171.574 747.92 116.641 901.444 2.912c121.026-89.656 221.346-202.43 370.896-228.125z" fill="#64EDD5"/></g><g filter="url(#prefix__filter1_f_69_8532)"><path fill-rule="evenodd" clip-rule="evenodd" d="M513.496 156.249c131.296-17.204 291.637-71.13 381.116 27.341 89.267 98.24 4.332 251.767-6.818 384.577-9.533 113.542 19.187 236.639-52.714 324.505-76.673 93.698-201.23 128.868-321.584 132.908-124.935 4.18-254.849-21.86-343.684-110.607C80.627 825.879 45.764 694.412 55.615 568.167c9.15-117.267 77.355-217.902 164.367-296.18 81.51-73.328 185.225-101.549 293.514-115.738z" fill="#345EC9"/></g><g filter="url(#prefix__filter2_f_69_8532)"><path fill-rule="evenodd" clip-rule="evenodd" d="M1378.1-75.903c57.93-.58 120.24-20.964 166.63 13.75 50.62 37.886 72.66 103.415 74.39 166.623 1.77 64.988-11.95 138.457-65.04 175.981-49.82 35.216-114.97-4.651-175.98-5.626-59.05-.944-132.09 45.007-170.44.088-38.76-45.4 23.73-110.762 25.01-170.443 1.21-56.918-53.62-118.997-17.88-163.316 35.71-44.296 106.41-16.487 163.31-17.057z" fill="#2C57C2"/></g><g filter="url(#prefix__filter3_d_69_8532)" opacity=".5" clip-path="url(#prefix__clip1_69_8532)"><mask id="prefix__a" style="mask-type:luminance" maskUnits="userSpaceOnUse" x="-265" y="-16" width="2021" height="1010"><path d="M1755-16H-265V994h2020V-16z" fill="#fff"/></mask><g mask="url(#prefix__a)"><path d="M-75.236 518.521l-65.597-37.875-65.608 37.875v75.75l65.608 37.875 65.597-37.875m0-75.75v75.75m0-75.75l65.608-37.875 65.598 37.875v75.75m-131.206 0l65.608 37.875m65.598-37.875l-65.598 37.875m65.598-37.875l65.608 37.875m-131.206 0v75.75l65.598 37.875m65.608-113.625v75.75m0-75.75l65.597-37.875 65.608 37.875m-131.205 75.75L55.97 745.771m65.608-37.875l65.597 37.875m-131.205 0v75.75l65.608 37.875 65.597-37.875m0-75.75v75.75m0-75.75l65.608-37.875m-65.608 113.625l65.608 37.875 65.597-37.875m-65.597-189.375v75.75m0-75.75l65.597-37.875 65.608 37.875m-131.205 75.75l65.597 37.875m0 0v75.75m0-75.75l65.608-37.875M318.38 821.521l65.608 37.875 65.608-37.875m-65.608-189.375v75.75m0-75.75l65.608-37.875m-65.608 113.625l65.608 37.875m0 0v75.75m0-75.75l65.598-37.875m-65.598 113.625l65.598 37.875m65.608-340.875l-65.608-37.875-65.598 37.875v75.75m131.206-75.75v75.75m0-75.75l65.597-37.875 65.608 37.875v75.75m-131.205 0l-65.608 37.875m65.608-37.875l65.597 37.875m-131.205 0l-65.598-37.875m65.598 37.875v75.75m0 0l65.608 37.875v75.75m0 0l-65.608 37.875m65.608-37.875l65.597 37.875v75.75l-65.597 37.875-65.608-37.875v-75.75m196.813-265.125l-65.608 37.875m65.608-37.875l65.597 37.875m-131.205 0v75.75l65.608 37.875 65.597-37.875m0-75.75v75.75m0-75.75l65.608-37.875 65.608 37.875v75.75l-65.608 37.875-65.608-37.875m459.226-189.375l-65.6-37.875-65.61 37.875v75.75m131.21-75.75v75.75m0-75.75l65.61-37.875m-65.61 113.625l-65.6 37.875m65.6-37.875l65.61 37.875m-131.21 0l-65.61-37.875m65.61 37.875v75.75l-65.61 37.875-65.59-37.875v-75.75l65.59-37.875m196.82-113.625l65.59 37.875m-65.59-37.875v-75.75l65.59-37.875 65.61 37.875m-65.61 113.625v75.75m0-75.75l65.61-37.875m-65.61 113.625l-65.59 37.875m65.59-37.875l65.61 37.875v75.75l-65.61 37.875-65.59-37.875v-75.75m131.2-227.25v75.75m0-75.75l65.61-37.875 65.6 37.875v75.75l-65.6 37.875-65.61-37.875m262.41 378.75l-65.6-37.875-65.6 37.875v75.75l65.6 37.875 65.6-37.875m0-75.75v75.75m0-75.75l65.61-37.875m-65.61 113.625l65.61 37.875 65.6-37.875v-75.75m0 0l65.61-37.875v-75.75l-65.61-37.875-65.6 37.875v75.75m65.6 37.875l-65.6-37.875M55.97 139.771l65.608 37.875v75.75L55.97 291.271l-65.598-37.875v-75.75l65.598-37.875zm65.608 795.375l65.597 37.875v75.749l-65.597 37.88-65.608-37.88v-75.749l65.608-37.875zM187.175-87.478l65.608 37.874v75.75l-65.608 37.876-65.597-37.876v-75.75l65.597-37.874zm65.608 340.874l65.597 37.875v75.75l-65.597 37.875-65.608-37.875v-75.75l65.608-37.875zM580.802-87.479l65.597 37.876v75.75l-65.597 37.875-65.608-37.876v-75.75l65.608-37.874zm0 227.25l65.597 37.875v75.75l-65.597 37.875-65.608-37.875v-75.75l65.608-37.875zm196.802 795.375l65.608 37.875v75.749l-65.608 37.88-65.597-37.88v-75.749l65.597-37.875zm262.426-681.75l65.59 37.875v75.75l-65.59 37.875-65.613-37.875v-75.75l65.613-37.875zm131.2-227.25l65.6 37.876v75.749l-65.6 37.875-65.61-37.875v-75.75l65.61-37.874zm-65.61 795.375l65.61 37.875v75.75l-65.61 37.875-65.59-37.875v-75.75l65.59-37.875zm393.63-909l65.6 37.876v75.75l-65.6 37.875-65.61-37.876v-75.75l65.61-37.874zm196.8 340.875l65.61 37.875v75.75l-65.61 37.875-65.6-37.875v-75.75l65.6-37.875z" stroke="#64EDD5" stroke-opacity=".16" stroke-width="2"/></g></g></g><defs><filter id="prefix__filter0_f_69_8532" x="-215.012" y="-950.066" width="2793.88" height="2765.73" filterUnits="userSpaceOnUse" color-interpolation-filters="sRGB"><feFlood flood-opacity="0" result="BackgroundImageFix"/><feBlend in="SourceGraphic" in2="BackgroundImageFix" result="shape"/><feGaussianBlur stdDeviation="348.689" result="effect1_foregroundBlur_69_8532"/></filter><filter id="prefix__filter1_f_69_8532" x="-714.657" y="-642.657" width="2418.31" height="2437.31" filterUnits="userSpaceOnUse" color-interpolation-filters="sRGB"><feFlood flood-opacity="0" result="BackgroundImageFix"/><feBlend in="SourceGraphic" in2="BackgroundImageFix" result="shape"/><feGaussianBlur stdDeviation="384.329" result="effect1_foregroundBlur_69_8532"/></filter><filter id="prefix__filter2_f_69_8532" x="833.057" y="-445.943" width="1148.15" height="1102.84" filterUnits="userSpaceOnUse" color-interpolation-filters="sRGB"><feFlood flood-opacity="0" result="BackgroundImageFix"/><feBlend in="SourceGraphic" in2="BackgroundImageFix" result="shape"/><feGaussianBlur stdDeviation="180.971" result="effect1_foregroundBlur_69_8532"/></filter><filter id="prefix__filter3_d_69_8532" x="-209.441" y="-16" width="1966.44" height="1024" filterUnits="userSpaceOnUse" color-interpolation-filters="sRGB"><feFlood flood-opacity="0" result="BackgroundImageFix"/><feColorMatrix in="SourceAlpha" values="0 0 0 0 0 0 0 0 0 0 0 0 0 0 0 0 0 0 127 0" result="hardAlpha"/><feOffset dy="12"/><feGaussianBlur stdDeviation="1"/><feComposite in2="hardAlpha" operator="out"/><feColorMatrix values="0 0 0 0 0.380392 0 0 0 0 0.901961 0 0 0 0 0.843137 0 0 0 0.1 0"/><feBlend in2="BackgroundImageFix" result="effect1_dropShadow_69_8532"/><feBlend in="SourceGraphic" in2="effect1_dropShadow_69_8532" result="shape"/></filter><clipPath id="prefix__clip0_69_8532"><path fill="#fff" d="M0 0h1512v982H0z"/></clipPath><clipPath id="prefix__clip1_69_8532"><path fill="#fff" transform="translate(-265 -16)" d="M0 0h2020v1010H0z"/></clipPath></defs></svg>
