<svg width="1040" height="676" fill="none" xmlns="http://www.w3.org/2000/svg"><g clip-path="url(#prefix__clip0_154_17072)"><path fill="#00174B" d="M0 0h1040v675.45H0z"/><g filter="url(#prefix__filter0_f_154_17072)"><path fill-rule="evenodd" clip-rule="evenodd" d="M655.367-313.564c148.011-25.433 328.277-50.555 429.653 58.014 100.67 107.813 48.26 278.096 17.57 420.952-23.55 109.623-99.31 188.696-167.82 278.439-90.513 118.566-137.749 318.367-289.041 320.02-150.992 1.649-188.257-209.352-295.241-313.636C241.09 343.589 19.919 306.765 21.853 155.735 23.788 4.643 234.805-39.411 357.925-130.617c97.06-71.9 177.513-162.341 297.442-182.947z" fill="#64EDD5"/></g><g filter="url(#prefix__filter1_f_154_17072)"><path fill-rule="evenodd" clip-rule="evenodd" d="M39.056 317.806c90.309-11.833 200.597-48.926 262.142 18.806 61.401 67.572 2.98 173.173-4.689 264.524-6.557 78.097 13.197 162.768-36.258 223.204-52.738 64.449-138.412 88.64-221.195 91.415-85.934 2.881-175.293-15.035-236.397-76.075-61.344-61.281-85.324-151.709-78.548-238.544 6.293-80.66 53.207-149.88 113.057-203.722 56.065-50.437 127.403-69.848 201.888-79.608z" fill="#345EC9"/></g><g filter="url(#prefix__filter2_f_154_17072)"><path fill-rule="evenodd" clip-rule="evenodd" d="M947.901-52.208c39.847-.4 82.709-14.42 114.609 9.457 34.82 26.06 49.98 71.132 51.17 114.609 1.22 44.7-8.22 95.234-44.73 121.045-34.27 24.223-79.088-3.199-121.049-3.87-40.62-.649-90.859 30.957-117.236.061-26.66-31.228 16.324-76.186 17.2-117.236.836-39.15-36.878-81.85-12.298-112.334 24.566-30.468 73.198-11.34 112.334-11.732z" fill="#2C57C2"/></g><g filter="url(#prefix__filter3_d_154_17072)" opacity=".5" clip-path="url(#prefix__clip1_154_17072)"><mask id="prefix__a" style="mask-type:luminance" maskUnits="userSpaceOnUse" x="-183" y="-12" width="1391" height="696"><path d="M1207.14-11.005H-182.275v694.709H1207.14v-694.71z" fill="#fff"/></mask><g mask="url(#prefix__a)"><path d="M-51.75 356.655l-45.12-26.052-45.126 26.052v52.103l45.127 26.052 45.12-26.052m0-52.103v52.103m0-52.103l45.127-26.052 45.12 26.052v52.103m-90.247 0l45.127 26.052m45.12-26.052l-45.12 26.052m45.12-26.052l45.127 26.052m-90.247 0v52.103l45.12 26.051m45.127-78.154v52.103m0-52.103l45.12-26.052 45.127 26.052m-90.247 52.103l-45.127 26.051m45.127-26.051l45.12 26.051m-90.247 0v52.103l45.127 26.052 45.12-26.052m0-52.103v52.103m0-52.103l45.127-26.051m-45.127 78.154l45.127 26.052 45.12-26.052m-45.12-130.257v52.103m0-52.103l45.12-26.052 45.127 26.052m-90.247 52.103l45.12 26.051m0 0v52.103m0-52.103l45.127-26.051m-45.127 78.154l45.127 26.052 45.127-26.052M264.119 434.81v52.103m0-52.103l45.127-26.052m-45.127 78.155l45.127 26.051m0 0v52.103m0-52.103l45.12-26.051m-45.12 78.154l45.12 26.052m45.127-234.464l-45.127-26.052-45.12 26.052v52.103m90.247-52.103v52.103m0-52.103l45.12-26.052 45.127 26.052v52.103m-90.247 0l-45.127 26.052m45.127-26.052l45.12 26.052m-90.247 0l-45.12-26.052m45.12 26.052v52.103m0 0l45.127 26.051v52.103m0 0l-45.127 26.052m45.127-26.052l45.12 26.052v52.103l-45.12 26.052-45.127-26.052v-52.103M489.74 408.758l-45.127 26.052m45.127-26.052l45.12 26.052m-90.247 0v52.103l45.127 26.051 45.12-26.051m0-52.103v52.103m0-52.103l45.127-26.052 45.127 26.052v52.103l-45.127 26.051-45.127-26.051m315.868-130.258l-45.119-26.052-45.128 26.052v52.103m90.247-52.103v52.103m0-52.103l45.128-26.052m-45.128 78.155l-45.119 26.052m45.119-26.052l45.128 26.052m-90.247 0l-45.128-26.052m45.128 26.052v52.103l-45.128 26.051-45.119-26.051V434.81l45.119-26.052m135.375-78.155l45.119 26.052m-45.119-26.052V278.5l45.119-26.052 45.128 26.052m-45.128 78.155v52.103m0-52.103l45.128-26.052m-45.128 78.155l-45.119 26.052m45.119-26.052l45.128 26.052v52.103l-45.128 26.051-45.119-26.051V434.81m90.247-156.31v52.103m0-52.103l45.127-26.052 45.12 26.052v52.103l-45.12 26.052-45.127-26.052M1166.6 591.119l-45.12-26.052-45.13 26.052v52.103l45.13 26.052 45.12-26.052m0-52.103v52.103m0-52.103l45.12-26.052m-45.12 78.155l45.12 26.052 45.12-26.052v-52.103m0 0l45.13-26.052v-52.103l-45.13-26.051-45.12 26.051v52.103m45.12 26.052l-45.12-26.052M38.498 96.139l45.127 26.052v52.103l-45.127 26.051-45.12-26.051v-52.103l45.12-26.052zm45.127 547.083l45.12 26.052v52.103l-45.12 26.052-45.127-26.052v-52.103l45.127-26.052zm45.12-703.392l45.127 26.051v52.103l-45.127 26.052-45.12-26.052v-52.103l45.12-26.051zm45.127 234.464l45.12 26.051v52.103l-45.12 26.052-45.127-26.052v-52.103l45.127-26.051zM399.493-60.171l45.12 26.052v52.103l-45.12 26.052-45.127-26.052v-52.103l45.127-26.051zm0 156.31l45.12 26.052v52.103l-45.12 26.051-45.127-26.051v-52.103l45.127-26.052zM534.86 643.222l45.127 26.052v52.103l-45.127 26.052-45.12-26.052v-52.103l45.12-26.052zm180.502-468.928l45.119 26.051v52.103L715.362 278.5l-45.128-26.052v-52.103l45.128-26.051zm90.247-156.31l45.119 26.052v52.103l-45.119 26.052-45.128-26.052V44.036l45.128-26.052zm-45.128 547.083l45.128 26.052v52.103l-45.128 26.052-45.119-26.052v-52.103l45.119-26.052zM1031.23-60.17l45.12 26.051v52.103l-45.12 26.052-45.127-26.052v-52.103l45.127-26.051zm135.37 234.464l45.12 26.051v52.103L1166.6 278.5l-45.12-26.052v-52.103l45.12-26.051z" stroke="#64EDD5" stroke-opacity=".16" stroke-width="1.376"/></g></g></g><defs><filter id="prefix__filter0_f_154_17072" x="-537.429" y="-894.868" width="2240.58" height="2218.01" filterUnits="userSpaceOnUse" color-interpolation-filters="sRGB"><feFlood flood-opacity="0" result="BackgroundImageFix"/><feBlend in="SourceGraphic" in2="BackgroundImageFix" result="shape"/><feGaussianBlur stdDeviation="279.635" result="effect1_foregroundBlur_154_17072"/></filter><filter id="prefix__filter1_f_154_17072" x="-805.706" y="-231.706" width="1663.39" height="1676.46" filterUnits="userSpaceOnUse" color-interpolation-filters="sRGB"><feFlood flood-opacity="0" result="BackgroundImageFix"/><feBlend in="SourceGraphic" in2="BackgroundImageFix" result="shape"/><feGaussianBlur stdDeviation="264.353" result="effect1_foregroundBlur_154_17072"/></filter><filter id="prefix__filter2_f_154_17072" x="573.002" y="-306.733" width="789.732" height="758.567" filterUnits="userSpaceOnUse" color-interpolation-filters="sRGB"><feFlood flood-opacity="0" result="BackgroundImageFix"/><feBlend in="SourceGraphic" in2="BackgroundImageFix" result="shape"/><feGaussianBlur stdDeviation="124.478" result="effect1_foregroundBlur_154_17072"/></filter><filter id="prefix__filter3_d_154_17072" x="-144.06" y="-11.005" width="1352.58" height="704.339" filterUnits="userSpaceOnUse" color-interpolation-filters="sRGB"><feFlood flood-opacity="0" result="BackgroundImageFix"/><feColorMatrix in="SourceAlpha" values="0 0 0 0 0 0 0 0 0 0 0 0 0 0 0 0 0 0 127 0" result="hardAlpha"/><feOffset dy="8.254"/><feGaussianBlur stdDeviation=".688"/><feComposite in2="hardAlpha" operator="out"/><feColorMatrix values="0 0 0 0 0.380392 0 0 0 0 0.901961 0 0 0 0 0.843137 0 0 0 0.1 0"/><feBlend in2="BackgroundImageFix" result="effect1_dropShadow_154_17072"/><feBlend in="SourceGraphic" in2="effect1_dropShadow_154_17072" result="shape"/></filter><clipPath id="prefix__clip0_154_17072"><path fill="#fff" d="M0 0h1040v675.45H0z"/></clipPath><clipPath id="prefix__clip1_154_17072"><path fill="#fff" transform="translate(-182.275 -11.005)" d="M0 0h1389.42v694.709H0z"/></clipPath></defs></svg>
