<svg width="308" height="243" fill="none" xmlns="http://www.w3.org/2000/svg"><path fill="#381F31" d="M97.845 84.848h6.061v6.061h-6.061z"/><path fill="#381F31" d="M103.905 84.848h6.061v6.061h-6.061z"/><path fill="#381F31" d="M109.966 84.848h6.061v6.061h-6.061z"/><path fill="#381F31" d="M116.026 84.848h6.061v6.061h-6.061zM122.087 84.848h6.061v6.061h-6.061zM91.784 90.909h6.061v6.061h-6.061z"/><path fill="#6B362D" d="M97.845 90.909h6.061v6.061h-6.061z"/><path fill="#854A41" d="M103.905 90.909h6.061v6.061h-6.061z"/><path fill="#854A41" d="M109.966 90.909h6.061v6.061h-6.061z"/><path fill="#854A41" d="M116.026 90.909h6.061v6.061h-6.061zM122.087 90.909h6.061v6.061h-6.061z"/><path fill="#381F31" d="M128.148 90.909h6.061v6.061h-6.061zM85.723 96.97h6.061v6.061h-6.061z"/><path fill="#6B362D" d="M91.784 96.97h6.061v6.061h-6.061z"/><path fill="#854A41" d="M97.845 96.97h6.061v6.061h-6.061z"/><path fill="#854A41" d="M103.905 96.97h6.061v6.061h-6.061z"/><path fill="#854A41" d="M109.966 96.97h6.061v6.061h-6.061z"/><path fill="#854A41" d="M116.026 96.97h6.061v6.061h-6.061zM122.087 96.97h6.061v6.061h-6.061zM128.148 96.97h6.061v6.061h-6.061z"/><path fill="#381F31" d="M134.208 96.97h6.061v6.061h-6.061zM79.663 103.03h6.061v6.061h-6.061z"/><path fill="#6B362D" d="M85.723 103.03h6.061v6.061h-6.061zM91.784 103.03h6.061v6.061h-6.061zM97.845 103.03h6.061v6.061h-6.061z"/><path fill="#854A41" d="M103.905 103.03h6.061v6.061h-6.061z"/><path fill="#854A41" d="M109.966 103.03h6.061v6.061h-6.061z"/><path fill="#854A41" d="M116.026 103.03h6.061v6.061h-6.061zM122.087 103.03h6.061v6.061h-6.061zM128.148 103.03h6.061v6.061h-6.061z"/><path fill="#854A41" d="M134.208 103.03h6.061v6.061h-6.061z"/><path fill="#381F31" d="M140.269 103.03h6.061v6.061h-6.061zM79.663 109.091h6.061v6.061h-6.061z"/><path fill="#6B362D" d="M85.723 109.091h6.061v6.061h-6.061zM91.784 109.091h6.061v6.061h-6.061zM97.845 109.091h6.061v6.061h-6.061z"/><path fill="#6B362D" d="M103.905 109.091h6.061v6.061h-6.061z"/><path fill="#854A41" d="M109.966 109.091h6.061v6.061h-6.061z"/><path fill="#854A41" d="M116.026 109.091h6.061v6.061h-6.061zM122.087 109.091h6.061v6.061h-6.061zM128.148 109.091h6.061v6.061h-6.061z"/><path fill="#6B362D" d="M134.208 109.091h6.061v6.061h-6.061z"/><path fill="#381F31" d="M140.269 109.091h6.061v6.061h-6.061zM73.602 115.151h6.061v6.061h-6.061z"/><path fill="#6B362D" d="M79.663 115.151h6.061v6.061h-6.061z"/><path fill="#6B362D" d="M85.723 115.151h6.061v6.061h-6.061zM91.784 115.151h6.061v6.061h-6.061zM97.845 115.151h6.061v6.061h-6.061z"/><path fill="#6B362D" d="M103.905 115.151h6.061v6.061h-6.061z"/><path fill="#6B362D" d="M109.966 115.151h6.061v6.061h-6.061z"/><path fill="#6B362D" d="M116.026 115.151h6.061v6.061h-6.061zM122.087 115.151h6.061v6.061h-6.061zM128.148 115.151h6.061v6.061h-6.061z"/><path fill="#6B362D" d="M134.208 115.151h6.061v6.061h-6.061z"/><path fill="#381F31" d="M140.269 115.151h6.061v6.061h-6.061zM73.602 121.212h6.061v6.061h-6.061z"/><path fill="#EEC39A" d="M79.663 121.212h6.061v6.061h-6.061z"/><path fill="#6B362D" d="M85.723 121.212h6.061v6.061h-6.061zM91.784 121.212h6.061v6.061h-6.061zM97.845 121.212h6.061v6.061h-6.061z"/><path fill="#D9A066" d="M103.905 121.212h6.061v6.061h-6.061z"/><path fill="#D9A066" d="M109.966 121.212h6.061v6.061h-6.061z"/><path fill="#854A41" d="M116.026 121.212h6.061v6.061h-6.061zM122.087 121.212h6.061v6.061h-6.061z"/><path fill="#D9A066" d="M128.148 121.212h6.061v6.061h-6.061z"/><path fill="#854A41" d="M134.208 121.212h6.061v6.061h-6.061z"/><path fill="#381F31" d="M140.269 121.212h6.061v6.061h-6.061zM73.602 127.273h6.061v6.061h-6.061z"/><path fill="#EEC39A" d="M79.663 127.273h6.061v6.061h-6.061z"/><path fill="#6B362D" d="M85.723 127.273h6.061v6.061h-6.061zM91.784 127.273h6.061v6.061h-6.061zM97.845 127.273h6.061v6.061h-6.061z"/><path fill="#D9A066" d="M103.905 127.273h6.061v6.061h-6.061z"/><path fill="#000" d="M109.966 127.273h6.061v6.061h-6.061z"/><path fill="#EEC39A" d="M116.026 127.273h6.061v6.061h-6.061zM122.087 127.273h6.061v6.061h-6.061z"/><path fill="#000" d="M128.148 127.273h6.061v6.061h-6.061z"/><path fill="#D9A066" d="M134.208 127.273h6.061v6.061h-6.061z"/><path fill="#381F31" d="M140.269 127.273h6.061v6.061h-6.061zM73.602 133.333h6.061v6.061h-6.061z"/><path fill="#D9A066" d="M79.663 133.333h6.061v6.061h-6.061z"/><path fill="#6B362D" d="M85.723 133.333h6.061v6.061h-6.061zM91.784 133.333h6.061v6.061h-6.061z"/><path fill="#D9A066" d="M97.845 133.333h6.061v6.061h-6.061z"/><path fill="#EEC39A" d="M103.905 133.333h6.061v6.061h-6.061z"/><path fill="#000" d="M109.966 133.333h6.061v6.061h-6.061z"/><path fill="#EEC39A" d="M116.026 133.333h6.061v6.061h-6.061zM122.087 133.333h6.061v6.061h-6.061z"/><path fill="#000" d="M128.148 133.333h6.061v6.061h-6.061z"/><path fill="#D9A066" d="M134.208 133.333h6.061v6.061h-6.061z"/><path fill="#381F31" d="M140.269 133.333h6.061v6.061h-6.061zM79.663 139.394h6.061v6.061h-6.061z"/><path fill="#6B362D" d="M85.723 139.394h6.061v6.061h-6.061zM91.784 139.394h6.061v6.061h-6.061z"/><path fill="#D9A066" d="M97.845 139.394h6.061v6.061h-6.061z"/><path fill="#EEC39A" d="M103.905 139.394h6.061v6.061h-6.061z"/><path fill="#EEC39A" d="M109.966 139.394h6.061v6.061h-6.061z"/><path fill="#EEC39A" d="M116.026 139.394h6.061v6.061h-6.061zM122.087 139.394h6.061v6.061h-6.061zM128.148 139.394h6.061v6.061h-6.061z"/><path fill="#D9A066" d="M134.208 139.394h6.061v6.061h-6.061z"/><path fill="#381F31" d="M140.269 139.394h6.061v6.061h-6.061zM85.723 145.454h6.061v6.061h-6.061z"/><path fill="#6B362D" d="M91.784 145.454h6.061v6.061h-6.061z"/><path fill="#D9A066" d="M97.845 145.454h6.061v6.061h-6.061z"/><path fill="#EEC39A" d="M103.905 145.454h6.061v6.061h-6.061z"/><path fill="#EEC39A" d="M109.966 145.454h6.061v6.061h-6.061z"/><path fill="#D6917C" d="M116.026 145.454h6.061v6.061h-6.061zM122.087 145.454h6.061v6.061h-6.061z"/><path fill="#EEC39A" d="M128.148 145.454h6.061v6.061h-6.061z"/><path fill="#EEC39A" d="M134.208 145.454h6.061v6.061h-6.061z"/><path fill="#381F31" d="M140.269 145.454h6.061v6.061h-6.061zM85.723 151.515h6.061v6.061h-6.061z"/><path fill="#6B362D" d="M91.784 151.515h6.061v6.061h-6.061zM97.845 151.515h6.061v6.061h-6.061z"/><path fill="#EEC39A" d="M103.905 151.515h6.061v6.061h-6.061z"/><path fill="#EEC39A" d="M109.966 151.515h6.061v6.061h-6.061z"/><path fill="#EEC39A" d="M116.026 151.515h6.061v6.061h-6.061zM122.087 151.515h6.061v6.061h-6.061zM128.148 151.515h6.061v6.061h-6.061z"/><path fill="#EEC39A" d="M134.208 151.515h6.061v6.061h-6.061z"/><path fill="#381F31" d="M140.269 151.515h6.061v6.061h-6.061zM85.723 157.576h6.061v6.061h-6.061z"/><path fill="#6B362D" d="M91.784 157.576h6.061v6.061h-6.061zM97.845 157.576h6.061v6.061h-6.061z"/><path fill="#6B362D" d="M103.905 157.576h6.061v6.061h-6.061z"/><path fill="#EEC39A" d="M109.966 157.576h6.061v6.061h-6.061z"/><path fill="#EEC39A" d="M116.026 157.576h6.061v6.061h-6.061zM122.087 157.576h6.061v6.061h-6.061zM128.148 157.576h6.061v6.061h-6.061z"/><path fill="#854A41" d="M134.208 157.576h6.061v6.061h-6.061z"/><path fill="#381F31" d="M140.269 157.576h6.061v6.061h-6.061zM85.723 163.636h6.061v6.061h-6.061z"/><path fill="#6B362D" d="M91.784 163.636h6.061v6.061h-6.061zM97.845 163.636h6.061v6.061h-6.061z"/><path fill="#EEC39A" d="M103.905 163.636h6.061v6.061h-6.061z"/><path fill="#EEC39A" d="M109.966 163.636h6.061v6.061h-6.061z"/><path fill="#D6917C" d="M116.026 163.636h6.061v6.061h-6.061zM122.087 163.636h6.061v6.061h-6.061z"/><path fill="#EEC39A" d="M128.148 163.636h6.061v6.061h-6.061z"/><path fill="#854A41" d="M134.208 163.636h6.061v6.061h-6.061z"/><path fill="#381F31" d="M140.269 163.636h6.061v6.061h-6.061zM85.723 169.697h6.061v6.061h-6.061z"/><path fill="#6B362D" d="M91.784 169.697h6.061v6.061h-6.061z"/><path fill="#381F31" d="M97.845 169.697h6.061v6.061h-6.061z"/><path fill="#6B362D" d="M103.905 169.697h6.061v6.061h-6.061z"/><path fill="#EEC39A" d="M109.966 169.697h6.061v6.061h-6.061z"/><path fill="#EEC39A" d="M116.026 169.697h6.061v6.061h-6.061zM122.087 169.697h6.061v6.061h-6.061zM128.148 169.697h6.061v6.061h-6.061z"/><path fill="#381F31" d="M134.208 169.697h6.061v6.061h-6.061zM85.723 175.758h6.061v6.061h-6.061z"/><path fill="#6B362D" d="M91.784 175.758h6.061v6.061h-6.061z"/><path fill="#D9A066" d="M97.845 175.758h6.061v6.061h-6.061z"/><path fill="#381F31" d="M103.905 175.758h6.061v6.061h-6.061z"/><path fill="#6B362D" d="M109.966 175.758h6.061v6.061h-6.061z"/><path fill="#6B362D" d="M116.026 175.758h6.061v6.061h-6.061z"/><path fill="#854A41" d="M122.087 175.758h6.061v6.061h-6.061z"/><path fill="#381F31" d="M128.148 175.758h6.061v6.061h-6.061zM85.723 181.818h6.061v6.061h-6.061z"/><path fill="#6B362D" d="M91.784 181.818h6.061v6.061h-6.061z"/><path fill="#D9A066" d="M97.845 181.818h6.061v6.061h-6.061z"/><path fill="#381F31" d="M103.905 181.818h6.061v6.061h-6.061z"/><path fill="#381F31" d="M109.966 181.818h6.061v6.061h-6.061z"/><path fill="#381F31" d="M116.026 181.818h6.061v6.061h-6.061zM122.087 181.818h6.061v6.061h-6.061zM85.723 187.879h6.061v6.061h-6.061z"/><path fill="#6B362D" d="M91.784 187.879h6.061v6.061h-6.061z"/><path fill="#D9A066" d="M97.845 187.879h6.061v6.061h-6.061z"/><path fill="#381F31" d="M103.905 187.879h6.061v6.061h-6.061zM79.663 193.939h6.061V200h-6.061z"/><path fill="#6B362D" d="M85.723 193.939h6.061V200h-6.061zM91.784 193.939h6.061V200h-6.061zM97.845 193.939h6.061V200h-6.061z"/><path fill="#6B362D" d="M103.905 193.939h6.061V200h-6.061z"/><path fill="#381F31" d="M109.966 193.939h6.061V200h-6.061zM73.602 200h6.061v6.061h-6.061z"/><path fill="#6B362D" d="M79.663 200h6.061v6.061h-6.061z"/><path fill="#6B362D" d="M85.723 200h6.061v6.061h-6.061zM91.784 200h6.061v6.061h-6.061zM97.845 200h6.061v6.061h-6.061z"/><path fill="#6B362D" d="M103.905 200h6.061v6.061h-6.061z"/><path fill="#854A41" d="M109.966 200h6.061v6.061h-6.061z"/><path fill="#381F31" d="M116.026 200h6.061v6.061h-6.061zM67.542 206.061h6.061v6.061h-6.061z"/><path fill="#6B362D" d="M73.602 206.061h6.061v6.061h-6.061z"/><path fill="#6B362D" d="M79.663 206.061h6.061v6.061h-6.061z"/><path fill="#6B362D" d="M85.723 206.061h6.061v6.061h-6.061zM91.784 206.061h6.061v6.061h-6.061zM97.845 206.061h6.061v6.061h-6.061z"/><path fill="#6B362D" d="M103.905 206.061h6.061v6.061h-6.061z"/><path fill="#6B362D" d="M109.966 206.061h6.061v6.061h-6.061z"/><path fill="#854A41" d="M116.026 206.061h6.061v6.061h-6.061z"/><path fill="#381F31" d="M122.087 206.061h6.061v6.061h-6.061zM85.724 54.545h6.061v6.061h-6.061z"/><path fill="#381F31" d="M91.784 54.545h6.061v6.061h-6.061zM97.845 54.545h6.061v6.061h-6.061z"/><path fill="#381F31" d="M103.905 54.545h6.061v6.061h-6.061z"/><path fill="#381F31" d="M109.966 54.545h6.061v6.061h-6.061z"/><path fill="#381F31" d="M116.026 54.545h6.061v6.061h-6.061zM122.087 54.545h6.061v6.061h-6.061zM79.663 60.606h6.061v6.061h-6.061z"/><path fill="#DE38FF" d="M85.724 60.606h6.061v6.061h-6.061z"/><path fill="#DE38FF" d="M91.784 60.606h6.061v6.061h-6.061zM97.845 60.606h6.061v6.061h-6.061z"/><path fill="#43B9F0" d="M103.905 60.606h6.061v6.061h-6.061z"/><path fill="#43B9F0" d="M109.966 60.606h6.061v6.061h-6.061z"/><path fill="#1FDEC8" d="M116.026 60.606h6.061v6.061h-6.061zM122.087 60.606h6.061v6.061h-6.061z"/><path fill="#381F31" d="M128.148 60.606h6.061v6.061h-6.061zM73.602 66.667h6.061v6.061h-6.061z"/><path fill="#DE38FF" d="M79.663 66.667h6.061v6.061h-6.061zM85.724 66.667h6.061v6.061h-6.061z"/><path fill="#978DF0" d="M91.784 66.667h6.061v6.061h-6.061z"/><path fill="#43B9F0" d="M97.845 66.667h6.061v6.061h-6.061z"/><path fill="#43B9F0" d="M103.905 66.667h6.061v6.061h-6.061z"/><path fill="#43B9F0" d="M109.966 66.667h6.061v6.061h-6.061z"/><path fill="#1FDEC8" d="M116.026 66.667h6.061v6.061h-6.061zM122.087 66.667h6.061v6.061h-6.061zM128.148 66.667h6.061v6.061h-6.061z"/><path fill="#381F31" d="M134.208 66.667h6.061v6.061h-6.061zM67.542 72.727h6.061v6.061h-6.061z"/><path fill="#DE38FF" d="M73.602 72.727h6.061v6.061h-6.061z"/><path fill="#DE38FF" d="M79.663 72.727h6.061v6.061h-6.061z"/><path fill="#978DF0" d="M85.724 72.727h6.061v6.061h-6.061z"/><path fill="#978DF0" d="M91.784 72.727h6.061v6.061h-6.061z"/><path fill="#43B9F0" d="M97.845 72.727h6.061v6.061h-6.061z"/><path fill="#43B9F0" d="M103.905 72.727h6.061v6.061h-6.061z"/><path fill="#43B9F0" d="M109.966 72.727h6.061v6.061h-6.061z"/><path fill="#1FDEC8" d="M116.026 72.727h6.061v6.061h-6.061zM122.087 72.727h6.061v6.061h-6.061zM128.148 72.727h6.061v6.061h-6.061z"/><path fill="#1FDEC8" d="M134.208 72.727h6.061v6.061h-6.061z"/><path fill="#381F31" d="M140.269 72.727h6.061v6.061h-6.061zM67.542 78.788h6.061v6.061h-6.061z"/><path fill="#DE38FF" d="M73.602 78.788h6.061v6.061h-6.061z"/><path fill="#DE38FF" d="M79.663 78.788h6.061v6.061h-6.061z"/><path fill="#978DF0" d="M85.724 78.788h6.061v6.061h-6.061z"/><path fill="#978DF0" d="M91.784 78.788h6.061v6.061h-6.061z"/><path fill="#43B9F0" d="M97.845 78.788h6.061v6.061h-6.061z"/><path fill="#43B9F0" d="M103.905 78.788h6.061v6.061h-6.061z"/><path fill="#43B9F0" d="M109.966 78.788h6.061v6.061h-6.061z"/><path fill="#1FDEC8" d="M116.026 78.788h6.061v6.061h-6.061zM122.087 78.788h6.061v6.061h-6.061zM128.148 78.788h6.061v6.061h-6.061z"/><path fill="#1FDEC8" d="M134.208 78.788h6.061v6.061h-6.061z"/><path fill="#381F31" d="M140.269 78.788h6.061v6.061h-6.061zM67.542 84.849h6.061v6.061h-6.061z"/><path fill="#DE38FF" d="M73.602 84.849h6.061v6.061h-6.061z"/><path fill="#DE38FF" d="M79.663 84.849h6.061v6.061h-6.061z"/><path fill="#978DF0" d="M85.724 84.849h6.061v6.061h-6.061z"/><path fill="#978DF0" d="M91.784 84.849h6.061v6.061h-6.061z"/><path fill="#43B9F0" d="M97.845 84.849h6.061v6.061h-6.061z"/><path fill="#43B9F0" d="M103.905 84.849h6.061v6.061h-6.061z"/><path fill="#381F31" d="M109.966 84.849h6.061v6.061h-6.061z"/><path fill="#381F31" d="M116.026 84.849h6.061v6.061h-6.061zM122.087 84.849h6.061v6.061h-6.061z"/><path fill="#1FDEC8" d="M128.148 84.849h6.061v6.061h-6.061z"/><path fill="#1FDEC8" d="M134.208 84.849h6.061v6.061h-6.061z"/><path fill="#381F31" d="M140.269 84.849h6.061v6.061h-6.061zM55.42 90.909h6.061v6.061H55.42zM61.481 90.909h6.061v6.061h-6.061zM67.542 90.909h6.061v6.061h-6.061z"/><path fill="#DE38FF" d="M73.602 90.909h6.061v6.061h-6.061z"/><path fill="#DE38FF" d="M79.663 90.909h6.061v6.061h-6.061z"/><path fill="#978DF0" d="M85.724 90.909h6.061v6.061h-6.061z"/><path fill="#978DF0" d="M91.784 90.909h6.061v6.061h-6.061z"/><path fill="#43B9F0" d="M97.845 90.909h6.061v6.061h-6.061z"/><path fill="#381F31" d="M103.905 90.909h6.061v6.061h-6.061zM128.148 90.909h6.061v6.061h-6.061z"/><path fill="#1FDEC8" d="M134.208 90.909h6.061v6.061h-6.061z"/><path fill="#381F31" d="M140.269 90.909h6.061v6.061h-6.061zM49.36 96.97h6.061v6.061H49.36z"/><path fill="#1FDEC8" d="M55.42 96.97h6.061v6.061H55.42zM61.481 96.97h6.061v6.061h-6.061zM67.542 96.97h6.061v6.061h-6.061z"/><path fill="#1FDEC8" d="M73.602 96.97h6.061v6.061h-6.061z"/><path fill="#1FDEC8" d="M79.663 96.97h6.061v6.061h-6.061zM85.724 96.97h6.061v6.061h-6.061z"/><path fill="#1FDEC8" d="M91.784 96.97h6.061v6.061h-6.061zM97.845 96.97h6.061v6.061h-6.061z"/><path fill="#1FDEC8" d="M103.905 96.97h6.061v6.061h-6.061z"/><path fill="#1FDEC8" d="M109.966 96.97h6.061v6.061h-6.061z"/><path fill="#1FDEC8" d="M116.026 96.97h6.061v6.061h-6.061zM122.087 96.97h6.061v6.061h-6.061zM128.148 96.97h6.061v6.061h-6.061z"/><path fill="#1FDEC8" d="M134.208 96.97h6.061v6.061h-6.061z"/><path fill="#381F31" d="M140.269 96.97h6.061v6.061h-6.061zM43.299 103.03h6.061v6.061h-6.061z"/><path fill="#1FDEC8" d="M49.36 103.03h6.061v6.061H49.36z"/><path fill="#978DF0" d="M55.42 103.03h6.061v6.061H55.42zM61.481 103.03h6.061v6.061h-6.061zM67.542 103.03h6.061v6.061h-6.061z"/><path fill="#381F31" d="M49.36 109.091h6.061v6.061H49.36z"/><path fill="#381F31" d="M55.42 109.091h6.061v6.061H55.42zM61.481 109.091h6.061v6.061h-6.061zM67.542 109.091h6.061v6.061h-6.061zM140.269 109.091h6.061v6.061h-6.061z"/><path fill="#fff" d="M73.602 115.151h6.061v6.061h-6.061z"/><path fill="#fff" d="M79.663 115.151h6.061v6.061h-6.061zM85.724 115.151h6.061v6.061h-6.061z"/><path fill="#fff" d="M91.784 115.151h6.061v6.061h-6.061zM97.845 115.151h6.061v6.061h-6.061z"/><path fill="#fff" d="M103.905 115.151h6.061v6.061h-6.061z"/><path fill="#fff" d="M109.966 115.151h6.061v6.061h-6.061z"/><path fill="#fff" d="M116.026 115.151h6.061v6.061h-6.061zM122.087 115.151h6.061v6.061h-6.061zM128.148 115.151h6.061v6.061h-6.061z"/><path fill="#fff" d="M134.208 115.151h6.061v6.061h-6.061zM140.269 115.151h6.061v6.061h-6.061z"/><path fill="#381F31" d="M146.33 115.151h6.061v6.061h-6.061z"/><path fill="#fff" d="M85.724 121.212h6.061v6.061h-6.061z"/><path fill="#CA4646" d="M91.784 121.212h6.061v6.061h-6.061z"/><path fill="#DF5147" d="M97.845 121.212h6.061v6.061h-6.061z"/><path fill="#DF5147" d="M103.905 121.212h6.061v6.061h-6.061z"/><path fill="#D34F4F" d="M109.966 121.212h6.061v6.061h-6.061z"/><path fill="#fff" d="M116.026 121.212h6.061v6.061h-6.061z"/><path fill="#2ED7E5" d="M122.087 121.212h6.061v6.061h-6.061z"/><path fill="#23D6ED" d="M128.148 121.212h6.061v6.061h-6.061z"/><path fill="#14C2DC" d="M134.208 121.212h6.061v6.061h-6.061z"/><path fill="#fff" d="M140.269 121.212h6.061v6.061h-6.061z"/><path fill="#381F31" d="M146.33 121.212h6.061v6.061h-6.061z"/><path fill="#fff" d="M85.724 127.273h6.061v6.061h-6.061z"/><path fill="#CA4646" d="M91.784 127.273h6.061v6.061h-6.061z"/><path fill="#DF5147" d="M97.845 127.273h6.061v6.061h-6.061z"/><path fill="#C25F61" d="M103.905 127.273h6.061v6.061h-6.061z"/><path fill="#E35750" d="M109.966 127.273h6.061v6.061h-6.061z"/><path fill="#E57766" d="M116.026 127.273h6.061v6.061h-6.061z"/><path fill="#13E5FF" d="M122.087 127.273h6.061v6.061h-6.061z"/><path fill="#2ED7E5" d="M128.148 127.273h6.061v6.061h-6.061z"/><path fill="#14C2DC" d="M134.208 127.273h6.061v6.061h-6.061z"/><path fill="#fff" d="M140.269 127.273h6.061v6.061h-6.061z"/><path fill="#381F31" d="M146.33 127.273h6.061v6.061h-6.061z"/><path fill="#fff" d="M85.724 133.333h6.061v6.061h-6.061z"/><path fill="#DF5147" d="M91.784 133.333h6.061v6.061h-6.061z"/><path fill="#E35750" d="M97.845 133.333h6.061v6.061h-6.061z"/><path fill="#C25F61" d="M103.905 133.333h6.061v6.061h-6.061z"/><path fill="#E35750" d="M109.966 133.333h6.061v6.061h-6.061z"/><path fill="#fff" d="M116.026 133.333h6.061v6.061h-6.061z"/><path fill="#13E5FF" d="M122.087 133.333h6.061v6.061h-6.061z"/><path fill="#2ED7E5" d="M128.148 133.333h6.061v6.061h-6.061z"/><path fill="#14C2DC" d="M134.208 133.333h6.061v6.061h-6.061z"/><path fill="#fff" d="M140.269 133.333h6.061v6.061h-6.061z"/><path fill="#381F31" d="M146.33 133.333h6.061v6.061h-6.061z"/><path fill="#fff" d="M91.784 139.394h6.061v6.061h-6.061zM97.845 139.394h6.061v6.061h-6.061z"/><path fill="#fff" d="M103.905 139.394h6.061v6.061h-6.061z"/><path fill="#fff" d="M109.966 139.394h6.061v6.061h-6.061z"/><path fill="#fff" d="M116.026 139.394h6.061v6.061h-6.061zM122.087 139.394h6.061v6.061h-6.061zM128.148 139.394h6.061v6.061h-6.061z"/><path fill="#fff" d="M134.208 139.394h6.061v6.061h-6.061z"/><path fill="#381F31" d="M140.269 139.394h6.061v6.061h-6.061z"/><path fill="#381F31" d="M140.269 145.454h6.061v6.061h-6.061zM61.481 151.515h6.061v6.061h-6.061zM67.542 151.515h6.061v6.061h-6.061z"/><path fill="#381F31" d="M73.602 151.515h6.061v6.061h-6.061z"/><path fill="#381F31" d="M79.663 151.515h6.061v6.061h-6.061zM55.42 157.576h6.061v6.061H55.42z"/><path fill="#fff" d="M61.481 157.576h6.061v6.061h-6.061zM67.542 157.576h6.061v6.061h-6.061z"/><path fill="#fff" d="M73.602 157.576h6.061v6.061h-6.061z"/><path fill="#fff" d="M79.663 157.576h6.061v6.061h-6.061z"/><path fill="#381F31" d="M49.36 163.636h6.061v6.061H49.36z"/><path fill="#fff" d="M55.42 163.636h6.061v6.061H55.42zM61.481 163.636h6.061v6.061h-6.061z"/><path fill="#D1D1D1" d="M67.542 163.636h6.061v6.061h-6.061z"/><path fill="#D1D1D1" d="M73.602 163.636h6.061v6.061h-6.061z"/><path fill="#D1D1D1" d="M79.663 163.636h6.061v6.061h-6.061z"/><path fill="#381F31" d="M49.36 169.697h6.061v6.061H49.36z"/><path fill="#fff" d="M55.42 169.697h6.061v6.061H55.42zM61.481 169.697h6.061v6.061h-6.061zM67.542 169.697h6.061v6.061h-6.061z"/><path fill="#D1D1D1" d="M73.602 169.697h6.061v6.061h-6.061z"/><path fill="#D1D1D1" d="M79.663 169.697h6.061v6.061h-6.061z"/><path fill="#fff" d="M140.269 169.697h6.061v6.061h-6.061z"/><path fill="#381F31" d="M146.329 169.697h6.061v6.061h-6.061zM49.36 175.758h6.061v6.061H49.36z"/><path fill="#fff" d="M55.42 175.758h6.061v6.061H55.42zM61.481 175.758h6.061v6.061h-6.061zM67.542 175.758h6.061v6.061h-6.061z"/><path fill="#fff" d="M73.602 175.758h6.061v6.061h-6.061z"/><path fill="#D1D1D1" d="M79.663 175.758h6.061v6.061h-6.061z"/><path fill="#fff" d="M134.208 175.758h6.061v6.061h-6.061zM140.269 175.758h6.061v6.061h-6.061z"/><path fill="#381F31" d="M146.329 175.758h6.061v6.061h-6.061zM55.42 181.818h6.061v6.061H55.42z"/><path fill="#fff" d="M61.481 181.818h6.061v6.061h-6.061zM67.542 181.818h6.061v6.061h-6.061z"/><path fill="#fff" d="M73.602 181.818h6.061v6.061h-6.061z"/><path fill="#fff" d="M79.663 181.818h6.061v6.061h-6.061z"/><path fill="#fff" d="M85.723 181.818h6.061v6.061h-6.061zM128.148 181.818h6.061v6.061h-6.061z"/><path fill="#fff" d="M134.208 181.818h6.061v6.061h-6.061z"/><path fill="#381F31" d="M140.269 181.818h6.061v6.061h-6.061zM61.481 187.879h6.061v6.061h-6.061zM67.542 187.879h6.061v6.061h-6.061z"/><path fill="#fff" d="M73.602 187.879h6.061v6.061h-6.061z"/><path fill="#fff" d="M79.663 187.879h6.061v6.061h-6.061z"/><path fill="#fff" d="M85.723 187.879h6.061v6.061h-6.061zM103.905 187.879h6.061v6.061h-6.061z"/><path fill="#fff" d="M109.966 187.879h6.061v6.061h-6.061z"/><path fill="#fff" d="M116.026 187.879h6.061v6.061h-6.061zM122.087 187.879h6.061v6.061h-6.061zM128.148 187.879h6.061v6.061h-6.061z"/><path fill="#381F31" d="M134.208 187.879h6.061v6.061h-6.061zM55.42 193.939h6.061V200H55.42z"/><path fill="#738094" d="M61.481 193.939h6.061V200h-6.061zM67.542 193.939h6.061V200h-6.061z"/><path fill="#738094" d="M73.602 193.939h6.061V200h-6.061z"/><path fill="#738094" d="M79.663 193.939h6.061V200h-6.061z"/><path fill="#738094" d="M85.723 193.939h6.061V200h-6.061z"/><path fill="#381F31" d="M91.784 193.939h6.061V200h-6.061z"/><path fill="#738094" d="M97.845 193.939h6.061V200h-6.061z"/><path fill="#381F31" d="M103.905 193.939h6.061V200h-6.061z"/><path fill="#738094" d="M109.966 193.939h6.061V200h-6.061z"/><path fill="#738094" d="M116.026 193.939h6.061V200h-6.061zM122.087 193.939h6.061V200h-6.061z"/><path fill="#381F31" d="M128.148 193.939h6.061V200h-6.061zM49.36 200h6.061v6.061H49.36z"/><path fill="#738094" d="M55.42 200h6.061v6.061H55.42zM61.481 200h6.061v6.061h-6.061z"/><path fill="#8B9BB4" d="M67.542 200h6.061v6.061h-6.061z"/><path fill="#8B9BB4" d="M73.602 200h6.061v6.061h-6.061z"/><path fill="#8B9BB4" d="M79.663 200h6.061v6.061h-6.061z"/><path fill="#fff" d="M85.723 200h6.061v6.061h-6.061zM91.784 200h6.061v6.061h-6.061z"/><path fill="#8B9BB4" d="M97.845 200h6.061v6.061h-6.061z"/><path fill="#fff" d="M103.905 200h6.061v6.061h-6.061z"/><path fill="#fff" d="M109.966 200h6.061v6.061h-6.061z"/><path fill="#8B9BB4" d="M116.026 200h6.061v6.061h-6.061zM122.087 200h6.061v6.061h-6.061zM128.148 200h6.061v6.061h-6.061z"/><path fill="#381F31" d="M134.208 200h6.061v6.061h-6.061zM49.36 206.061h6.061v6.061H49.36z"/><path fill="#738094" d="M55.42 206.061h6.061v6.061H55.42zM61.481 206.061h6.061v6.061h-6.061z"/><path fill="#8B9BB4" d="M67.542 206.061h6.061v6.061h-6.061z"/><path fill="#8B9BB4" d="M73.602 206.061h6.061v6.061h-6.061z"/><path fill="#8B9BB4" d="M79.663 206.061h6.061v6.061h-6.061z"/><path fill="#fff" d="M85.723 206.061h6.061v6.061h-6.061zM91.784 206.061h6.061v6.061h-6.061z"/><path fill="#8B9BB4" d="M97.845 206.061h6.061v6.061h-6.061z"/><path fill="#fff" d="M103.905 206.061h6.061v6.061h-6.061z"/><path fill="#fff" d="M109.966 206.061h6.061v6.061h-6.061z"/><path fill="#8B9BB4" d="M116.026 206.061h6.061v6.061h-6.061zM122.087 206.061h6.061v6.061h-6.061zM128.148 206.061h6.061v6.061h-6.061z"/><path fill="#381F31" d="M134.208 206.061h6.061v6.061h-6.061zM204.095 115.206h6.061v6.061h-6.061z"/><path fill="#381F31" d="M210.155 115.206h6.061v6.061h-6.061zM216.216 115.206h6.061v6.061h-6.061z"/><path fill="#381F31" d="M222.276 115.206h6.061v6.061h-6.061z"/><path fill="#381F31" d="M228.337 115.206h6.061v6.061h-6.061zM198.034 121.266h6.061v6.061h-6.061z"/><path fill="#5E5E5E" d="M204.095 121.266h6.061v6.061h-6.061z"/><path fill="#959595" d="M210.155 121.266h6.061v6.061h-6.061zM216.216 121.266h6.061v6.061h-6.061z"/><path fill="#959595" d="M222.276 121.266h6.061v6.061h-6.061z"/><path fill="#959595" d="M228.337 121.266h6.061v6.061h-6.061z"/><path fill="#381F31" d="M234.398 121.266h6.061v6.061h-6.061zM191.973 127.327h6.061v6.061h-6.061z"/><path fill="#5E5E5E" d="M198.034 127.327h6.061v6.061h-6.061z"/><path fill="#959595" d="M204.095 127.327h6.061v6.061h-6.061z"/><path fill="#959595" d="M210.155 127.327h6.061v6.061h-6.061zM216.216 127.327h6.061v6.061h-6.061z"/><path fill="#959595" d="M222.276 127.327h6.061v6.061h-6.061z"/><path fill="#959595" d="M228.337 127.327h6.061v6.061h-6.061zM234.398 127.327h6.061v6.061h-6.061z"/><path fill="#381F31" d="M240.458 127.327h6.061v6.061h-6.061zM185.913 133.387h6.061v6.061h-6.061z"/><path fill="#5E5E5E" d="M191.973 133.387h6.061v6.061h-6.061z"/><path fill="#5E5E5E" d="M198.034 133.387h6.061v6.061h-6.061zM204.095 133.387h6.061v6.061h-6.061z"/><path fill="#959595" d="M210.155 133.387h6.061v6.061h-6.061zM216.216 133.387h6.061v6.061h-6.061z"/><path fill="#959595" d="M222.276 133.387h6.061v6.061h-6.061z"/><path fill="#959595" d="M228.337 133.387h6.061v6.061h-6.061zM234.398 133.387h6.061v6.061h-6.061z"/><path fill="#959595" d="M240.458 133.387h6.061v6.061h-6.061z"/><path fill="#381F31" d="M246.519 133.387h6.061v6.061h-6.061zM185.913 139.448h6.061v6.061h-6.061z"/><path fill="#5E5E5E" d="M191.973 139.448h6.061v6.061h-6.061z"/><path fill="#5E5E5E" d="M198.034 139.448h6.061v6.061h-6.061zM204.095 139.448h6.061v6.061h-6.061z"/><path fill="#5E5E5E" d="M210.155 139.448h6.061v6.061h-6.061z"/><path fill="#959595" d="M216.216 139.448h6.061v6.061h-6.061z"/><path fill="#959595" d="M222.276 139.448h6.061v6.061h-6.061z"/><path fill="#959595" d="M228.337 139.448h6.061v6.061h-6.061zM234.398 139.448h6.061v6.061h-6.061z"/><path fill="#5E5E5E" d="M240.458 139.448h6.061v6.061h-6.061z"/><path fill="#381F31" d="M246.519 139.448h6.061v6.061h-6.061zM179.852 145.509h6.061v6.061h-6.061z"/><path fill="#5E5E5E" d="M185.913 145.509h6.061v6.061h-6.061z"/><path fill="#5E5E5E" d="M191.973 145.509h6.061v6.061h-6.061z"/><path fill="#5E5E5E" d="M198.034 145.509h6.061v6.061h-6.061zM204.095 145.509h6.061v6.061h-6.061z"/><path fill="#5E5E5E" d="M210.155 145.509h6.061v6.061h-6.061zM216.216 145.509h6.061v6.061h-6.061z"/><path fill="#5E5E5E" d="M222.276 145.509h6.061v6.061h-6.061z"/><path fill="#5E5E5E" d="M228.337 145.509h6.061v6.061h-6.061zM234.398 145.509h6.061v6.061h-6.061z"/><path fill="#5E5E5E" d="M240.458 145.509h6.061v6.061h-6.061z"/><path fill="#381F31" d="M246.519 145.509h6.061v6.061h-6.061zM179.852 151.569h6.061v6.061h-6.061z"/><path fill="#EEC39A" d="M185.913 151.569h6.061v6.061h-6.061z"/><path fill="#5E5E5E" d="M191.973 151.569h6.061v6.061h-6.061z"/><path fill="#5E5E5E" d="M198.034 151.569h6.061v6.061h-6.061zM204.095 151.569h6.061v6.061h-6.061z"/><path fill="#D9A066" d="M210.155 151.569h6.061v6.061h-6.061zM216.216 151.569h6.061v6.061h-6.061z"/><path fill="#959595" d="M222.276 151.569h6.061v6.061h-6.061z"/><path fill="#959595" d="M228.337 151.569h6.061v6.061h-6.061z"/><path fill="#D9A066" d="M234.398 151.569h6.061v6.061h-6.061z"/><path fill="#959595" d="M240.458 151.569h6.061v6.061h-6.061z"/><path fill="#381F31" d="M246.519 151.569h6.061v6.061h-6.061zM179.852 157.63h6.061v6.061h-6.061z"/><path fill="#EEC39A" d="M185.913 157.63h6.061v6.061h-6.061z"/><path fill="#5E5E5E" d="M191.973 157.63h6.061v6.061h-6.061z"/><path fill="#5E5E5E" d="M198.034 157.63h6.061v6.061h-6.061zM204.095 157.63h6.061v6.061h-6.061z"/><path fill="#D9A066" d="M210.155 157.63h6.061v6.061h-6.061z"/><path fill="#32F2FF" d="M216.216 157.63h6.061v6.061h-6.061z"/><path fill="#EEC39A" d="M222.276 157.63h6.061v6.061h-6.061z"/><path fill="#EEC39A" d="M228.337 157.63h6.061v6.061h-6.061z"/><path fill="#32F2FF" d="M234.398 157.63h6.061v6.061h-6.061z"/><path fill="#D9A066" d="M240.458 157.63h6.061v6.061h-6.061z"/><path fill="#381F31" d="M246.519 157.63h6.061v6.061h-6.061zM179.852 163.69h6.061v6.061h-6.061z"/><path fill="#D9A066" d="M185.913 163.69h6.061v6.061h-6.061z"/><path fill="#5E5E5E" d="M191.973 163.69h6.061v6.061h-6.061z"/><path fill="#5E5E5E" d="M198.034 163.69h6.061v6.061h-6.061z"/><path fill="#D9A066" d="M204.095 163.69h6.061v6.061h-6.061z"/><path fill="#EEC39A" d="M210.155 163.69h6.061v6.061h-6.061z"/><path fill="#32F2FF" d="M216.216 163.69h6.061v6.061h-6.061z"/><path fill="#EEC39A" d="M222.276 163.69h6.061v6.061h-6.061z"/><path fill="#EEC39A" d="M228.337 163.69h6.061v6.061h-6.061z"/><path fill="#32F2FF" d="M234.398 163.69h6.061v6.061h-6.061z"/><path fill="#D9A066" d="M240.458 163.69h6.061v6.061h-6.061z"/><path fill="#381F31" d="M246.519 163.69h6.061v6.061h-6.061zM185.913 169.751h6.061v6.061h-6.061z"/><path fill="#5E5E5E" d="M191.973 169.751h6.061v6.061h-6.061z"/><path fill="#5E5E5E" d="M198.034 169.751h6.061v6.061h-6.061z"/><path fill="#D9A066" d="M204.095 169.751h6.061v6.061h-6.061z"/><path fill="#EEC39A" d="M210.155 169.751h6.061v6.061h-6.061zM216.216 169.751h6.061v6.061h-6.061z"/><path fill="#EEC39A" d="M222.276 169.751h6.061v6.061h-6.061z"/><path fill="#EEC39A" d="M228.337 169.751h6.061v6.061h-6.061zM234.398 169.751h6.061v6.061h-6.061z"/><path fill="#D9A066" d="M240.458 169.751h6.061v6.061h-6.061z"/><path fill="#381F31" d="M246.519 169.751h6.061v6.061h-6.061zM191.973 175.812h6.061v6.061h-6.061z"/><path fill="#5E5E5E" d="M198.034 175.812h6.061v6.061h-6.061z"/><path fill="#D9A066" d="M204.095 175.812h6.061v6.061h-6.061z"/><path fill="#EEC39A" d="M210.155 175.812h6.061v6.061h-6.061zM216.216 175.812h6.061v6.061h-6.061z"/><path fill="#D6917C" d="M222.276 175.812h6.061v6.061h-6.061z"/><path fill="#D6917C" d="M228.337 175.812h6.061v6.061h-6.061z"/><path fill="#EEC39A" d="M234.398 175.812h6.061v6.061h-6.061z"/><path fill="#EEC39A" d="M240.458 175.812h6.061v6.061h-6.061z"/><path fill="#381F31" d="M246.519 175.812h6.061v6.061h-6.061zM191.973 181.872h6.061v6.061h-6.061z"/><path fill="#5E5E5E" d="M198.034 181.872h6.061v6.061h-6.061zM204.095 181.872h6.061v6.061h-6.061z"/><path fill="#EEC39A" d="M210.155 181.872h6.061v6.061h-6.061zM216.216 181.872h6.061v6.061h-6.061z"/><path fill="#EEC39A" d="M222.276 181.872h6.061v6.061h-6.061z"/><path fill="#EEC39A" d="M228.337 181.872h6.061v6.061h-6.061zM234.398 181.872h6.061v6.061h-6.061z"/><path fill="#EEC39A" d="M240.458 181.872h6.061v6.061h-6.061z"/><path fill="#381F31" d="M246.519 181.872h6.061v6.061h-6.061zM191.973 187.933h6.061v6.061h-6.061z"/><path fill="#5E5E5E" d="M198.034 187.933h6.061v6.061h-6.061zM204.095 187.933h6.061v6.061h-6.061z"/><path fill="#5E5E5E" d="M210.155 187.933h6.061v6.061h-6.061z"/><path fill="#EEC39A" d="M216.216 187.933h6.061v6.061h-6.061z"/><path fill="#EEC39A" d="M222.276 187.933h6.061v6.061h-6.061z"/><path fill="#EEC39A" d="M228.337 187.933h6.061v6.061h-6.061zM234.398 187.933h6.061v6.061h-6.061z"/><path fill="#959595" d="M240.458 187.933h6.061v6.061h-6.061z"/><path fill="#381F31" d="M246.519 187.933h6.061v6.061h-6.061zM191.973 193.994h6.061v6.061h-6.061z"/><path fill="#5E5E5E" d="M198.034 193.994h6.061v6.061h-6.061zM204.095 193.994h6.061v6.061h-6.061z"/><path fill="#EEC39A" d="M210.155 193.994h6.061v6.061h-6.061zM216.216 193.994h6.061v6.061h-6.061z"/><path fill="#D6917C" d="M222.276 193.994h6.061v6.061h-6.061z"/><path fill="#D6917C" d="M228.337 193.994h6.061v6.061h-6.061z"/><path fill="#EEC39A" d="M234.398 193.994h6.061v6.061h-6.061z"/><path fill="#959595" d="M240.458 193.994h6.061v6.061h-6.061z"/><path fill="#381F31" d="M246.519 193.994h6.061v6.061h-6.061zM191.973 200.054h6.061v6.061h-6.061z"/><path fill="#5E5E5E" d="M198.034 200.054h6.061v6.061h-6.061z"/><path fill="#381F31" d="M204.095 200.054h6.061v6.061h-6.061z"/><path fill="#5E5E5E" d="M210.155 200.054h6.061v6.061h-6.061z"/><path fill="#EEC39A" d="M216.216 200.054h6.061v6.061h-6.061z"/><path fill="#EEC39A" d="M222.276 200.054h6.061v6.061h-6.061z"/><path fill="#EEC39A" d="M228.337 200.054h6.061v6.061h-6.061zM234.398 200.054h6.061v6.061h-6.061z"/><path fill="#381F31" d="M240.458 200.054h6.061v6.061h-6.061zM191.973 206.115h6.061v6.061h-6.061z"/><path fill="#5E5E5E" d="M198.034 206.115h6.061v6.061h-6.061z"/><path fill="#D9A066" d="M204.095 206.115h6.061v6.061h-6.061z"/><path fill="#381F31" d="M210.155 206.115h6.061v6.061h-6.061z"/><path fill="#5E5E5E" d="M216.216 206.115h6.061v6.061h-6.061z"/><path fill="#5E5E5E" d="M222.276 206.115h6.061v6.061h-6.061z"/><path fill="#959595" d="M228.337 206.115h6.061v6.061h-6.061z"/><path fill="#381F31" d="M234.398 206.115h6.061v6.061h-6.061zM191.973 212.175h6.061v6.061h-6.061z"/><path fill="#5E5E5E" d="M198.034 212.175h6.061v6.061h-6.061z"/><path fill="#D9A066" d="M204.095 212.175h6.061v6.061h-6.061z"/><path fill="#381F31" d="M210.155 212.175h6.061v6.061h-6.061zM216.216 212.175h6.061v6.061h-6.061z"/><path fill="#381F31" d="M222.276 212.175h6.061v6.061h-6.061z"/><path fill="#381F31" d="M228.337 212.175h6.061v6.061h-6.061zM191.973 218.236h6.061v6.061h-6.061z"/><path fill="#5E5E5E" d="M198.034 218.236h6.061v6.061h-6.061z"/><path fill="#D9A066" d="M204.095 218.236h6.061v6.061h-6.061z"/><path fill="#381F31" d="M210.155 218.236h6.061v6.061h-6.061zM185.913 224.297h6.061v6.061h-6.061z"/><path fill="#5E5E5E" d="M191.973 224.297h6.061v6.061h-6.061z"/><path fill="#5E5E5E" d="M198.034 224.297h6.061v6.061h-6.061zM204.095 224.297h6.061v6.061h-6.061z"/><path fill="#5E5E5E" d="M210.155 224.297h6.061v6.061h-6.061z"/><path fill="#381F31" d="M216.216 224.297h6.061v6.061h-6.061zM179.852 230.357h6.061v6.061h-6.061z"/><path fill="#5E5E5E" d="M185.913 230.357h6.061v6.061h-6.061z"/><path fill="#5E5E5E" d="M191.973 230.357h6.061v6.061h-6.061z"/><path fill="#5E5E5E" d="M198.034 230.357h6.061v6.061h-6.061zM204.095 230.357h6.061v6.061h-6.061z"/><path fill="#5E5E5E" d="M210.155 230.357h6.061v6.061h-6.061z"/><path fill="#959595" d="M216.216 230.357h6.061v6.061h-6.061z"/><path fill="#381F31" d="M222.276 230.357h6.061v6.061h-6.061zM173.792 236.418h6.061v6.061h-6.061z"/><path fill="#5E5E5E" d="M179.852 236.418h6.061v6.061h-6.061zM185.913 236.418h6.061v6.061h-6.061z"/><path fill="#5E5E5E" d="M191.973 236.418h6.061v6.061h-6.061z"/><path fill="#5E5E5E" d="M198.034 236.418h6.061v6.061h-6.061zM204.095 236.418h6.061v6.061h-6.061z"/><path fill="#5E5E5E" d="M210.155 236.418h6.061v6.061h-6.061zM216.216 236.418h6.061v6.061h-6.061z"/><path fill="#959595" d="M222.276 236.418h6.061v6.061h-6.061z"/><path fill="#381F31" d="M228.337 236.418h6.061v6.061h-6.061zM222.276 84.903h6.061v6.061h-6.061z"/><path fill="#381F31" d="M216.216 90.963h6.061v6.061h-6.061z"/><path fill="#FFF275" d="M222.276 90.963h6.061v6.061h-6.061z"/><path fill="#381F31" d="M228.337 90.963h6.061v6.061h-6.061zM179.852 97.024h6.061v6.061h-6.061zM198.034 97.024h6.061v6.061h-6.061zM204.095 97.024h6.061v6.061h-6.061z"/><path fill="#381F31" d="M210.155 97.024h6.061v6.061h-6.061z"/><path fill="#FFBF36" d="M216.216 97.024h6.061v6.061h-6.061z"/><path fill="#FFF275" d="M222.276 97.024h6.061v6.061h-6.061z"/><path fill="#381F31" d="M228.337 97.024h6.061v6.061h-6.061zM240.458 97.024h6.061v6.061h-6.061zM173.792 103.084h6.061v6.061h-6.061z"/><path fill="#FFF275" d="M179.852 103.084h6.061v6.061h-6.061z"/><path fill="#381F31" d="M185.913 103.084h6.061v6.061h-6.061z"/><path fill="#381F31" d="M191.974 103.084h6.061v6.061h-6.061z"/><path fill="#FFF275" d="M210.155 103.084h6.061v6.061h-6.061z"/><path fill="#FFBF36" d="M216.216 103.084h6.061v6.061h-6.061z"/><path fill="#FFF275" d="M222.276 103.084h6.061v6.061h-6.061z"/><path fill="#FFBF36" d="M228.337 103.084h6.061v6.061h-6.061z"/><path fill="#381F31" d="M234.398 103.084h6.061v6.061h-6.061z"/><path fill="#CF9115" d="M240.458 103.084h6.061v6.061h-6.061z"/><path fill="#381F31" d="M246.519 103.084h6.061v6.061h-6.061zM173.792 109.145h6.061v6.061h-6.061z"/><path fill="#FFBF36" d="M179.852 109.145h6.061v6.061h-6.061z"/><path fill="#FFF275" d="M185.913 109.145h6.061v6.061h-6.061z"/><path fill="#FFBF36" d="M204.095 109.145h6.061v6.061h-6.061z"/><path fill="#FFF275" d="M210.155 109.145h6.061v6.061h-6.061z"/><path fill="#FFBF36" d="M216.216 109.145h6.061v6.061h-6.061z"/><path fill="#A31010" d="M222.276 109.145h6.061v6.061h-6.061z"/><path fill="#FFBF36" d="M228.337 109.145h6.061v6.061h-6.061zM234.398 109.145h6.061v6.061h-6.061z"/><path fill="#CF9115" d="M240.458 109.145h6.061v6.061h-6.061z"/><path fill="#381F31" d="M246.519 109.145h6.061v6.061h-6.061zM173.792 115.206h6.061v6.061h-6.061z"/><path fill="#FFBF36" d="M179.852 115.206h6.061v6.061h-6.061z"/><path fill="#FFF275" d="M185.913 115.206h6.061v6.061h-6.061z"/><path fill="#FFBF36" d="M198.034 115.206h6.061v6.061h-6.061zM204.095 115.206h6.061v6.061h-6.061z"/><path fill="#FFF275" d="M210.155 115.206h6.061v6.061h-6.061z"/><path fill="#A31010" d="M216.216 115.206h6.061v6.061h-6.061z"/><path fill="#DE1616" d="M222.276 115.206h6.061v6.061h-6.061z"/><path fill="#DE1616" d="M228.337 115.206h6.061v6.061h-6.061z"/><path fill="#FFBF36" d="M234.398 115.206h6.061v6.061h-6.061z"/><path fill="#fff" d="M240.458 115.206h6.061v6.061h-6.061z"/><path fill="#381F31" d="M246.519 115.206h6.061v6.061h-6.061zM173.792 121.266h6.061v6.061h-6.061z"/><path fill="#FFBF36" d="M179.852 121.266h6.061v6.061h-6.061zM185.913 121.266h6.061v6.061h-6.061z"/><path fill="#FFBF36" d="M191.974 121.266h6.061v6.061h-6.061z"/><path fill="#FFBF36" d="M198.034 121.266h6.061v6.061h-6.061zM204.095 121.266h6.061v6.061h-6.061z"/><path fill="#FFBF36" d="M210.155 121.266h6.061v6.061h-6.061z"/><path fill="#FFF275" d="M216.216 121.266h6.061v6.061h-6.061z"/><path fill="#FFF275" d="M222.276 121.266h6.061v6.061h-6.061z"/><path fill="#fff" d="M228.337 121.266h6.061v6.061h-6.061zM234.398 121.266h6.061v6.061h-6.061z"/><path fill="#FFF275" d="M240.458 121.266h6.061v6.061h-6.061z"/><path fill="#381F31" d="M246.519 121.266h6.061v6.061h-6.061zM246.519 133.387h6.061v6.061h-6.061zM173.792 139.448h6.061v6.061h-6.061z"/><path fill="#fff" d="M179.852 139.448h6.061v6.061h-6.061z"/><path fill="#B2BCC2" d="M185.913 139.448h6.061v6.061h-6.061z"/><path fill="#fff" d="M191.974 139.448h6.061v6.061h-6.061z"/><path fill="#fff" d="M198.034 139.448h6.061v6.061h-6.061zM204.095 139.448h6.061v6.061h-6.061z"/><path fill="#fff" d="M210.155 139.448h6.061v6.061h-6.061zM216.216 139.448h6.061v6.061h-6.061z"/><path fill="#fff" d="M222.276 139.448h6.061v6.061h-6.061z"/><path fill="#fff" d="M228.337 139.448h6.061v6.061h-6.061zM234.398 139.448h6.061v6.061h-6.061z"/><path fill="#fff" d="M240.458 139.448h6.061v6.061h-6.061zM246.519 139.448h6.061v6.061h-6.061z"/><path fill="#381F31" d="M252.58 139.448h6.061v6.061h-6.061z"/><path fill="#fff" d="M179.852 145.509h6.061v6.061h-6.061z"/><path fill="#B2BCC2" d="M185.913 145.509h6.061v6.061h-6.061z"/><path fill="#fff" d="M191.974 145.509h6.061v6.061h-6.061z"/><path fill="#FB2626" d="M198.034 145.509h6.061v6.061h-6.061z"/><path fill="#FA6225" d="M204.095 145.509h6.061v6.061h-6.061z"/><path fill="#FAA125" d="M210.155 145.509h6.061v6.061h-6.061zM216.216 145.509h6.061v6.061h-6.061z"/><path fill="#FAF325" d="M222.276 145.509h6.061v6.061h-6.061z"/><path fill="#FB2626" d="M228.337 145.509h6.061v6.061h-6.061z"/><path fill="#FA6225" d="M234.398 145.509h6.061v6.061h-6.061z"/><path fill="#FAF325" d="M240.458 145.509h6.061v6.061h-6.061z"/><path fill="#fff" d="M246.519 145.509h6.061v6.061h-6.061z"/><path fill="#381F31" d="M252.58 145.509h6.061v6.061h-6.061z"/><path fill="#fff" d="M191.974 151.569h6.061v6.061h-6.061z"/><path fill="#FB2626" d="M198.034 151.569h6.061v6.061h-6.061z"/><path fill="#FA6225" d="M204.095 151.569h6.061v6.061h-6.061z"/><path fill="#FAA125" d="M210.155 151.569h6.061v6.061h-6.061z"/><path fill="#FB2626" d="M216.216 151.569h6.061v6.061h-6.061z"/><path fill="#FAF325" d="M222.276 151.569h6.061v6.061h-6.061z"/><path fill="#FB2626" d="M228.337 151.569h6.061v6.061h-6.061z"/><path fill="#FA6225" d="M234.398 151.569h6.061v6.061h-6.061z"/><path fill="#FAF325" d="M240.458 151.569h6.061v6.061h-6.061z"/><path fill="#fff" d="M246.519 151.569h6.061v6.061h-6.061z"/><path fill="#381F31" d="M252.58 151.569h6.061v6.061h-6.061z"/><path fill="#fff" d="M191.974 157.63h6.061v6.061h-6.061z"/><path fill="#FB2626" d="M198.034 157.63h6.061v6.061h-6.061z"/><path fill="#FA6225" d="M204.095 157.63h6.061v6.061h-6.061z"/><path fill="#FA6225" d="M210.155 157.63h6.061v6.061h-6.061z"/><path fill="#FB2626" d="M216.216 157.63h6.061v6.061h-6.061z"/><path fill="#FA6225" d="M222.276 157.63h6.061v6.061h-6.061z"/><path fill="#FAF325" d="M228.337 157.63h6.061v6.061h-6.061z"/><path fill="#FB2626" d="M234.398 157.63h6.061v6.061h-6.061z"/><path fill="#FAA125" d="M240.458 157.63h6.061v6.061h-6.061z"/><path fill="#fff" d="M246.519 157.63h6.061v6.061h-6.061z"/><path fill="#381F31" d="M252.58 157.63h6.061v6.061h-6.061z"/><path fill="#fff" d="M191.974 163.69h6.061v6.061h-6.061z"/><path fill="#FB2626" d="M198.034 163.69h6.061v6.061h-6.061z"/><path fill="#FA6225" d="M204.095 163.69h6.061v6.061h-6.061z"/><path fill="#FB2626" d="M210.155 163.69h6.061v6.061h-6.061zM216.216 163.69h6.061v6.061h-6.061z"/><path fill="#FA6225" d="M222.276 163.69h6.061v6.061h-6.061z"/><path fill="#FB2626" d="M228.337 163.69h6.061v6.061h-6.061z"/><path fill="#FAA125" d="M234.398 163.69h6.061v6.061h-6.061z"/><path fill="#FAA125" d="M240.458 163.69h6.061v6.061h-6.061z"/><path fill="#fff" d="M246.519 163.69h6.061v6.061h-6.061z"/><path fill="#381F31" d="M252.58 163.69h6.061v6.061h-6.061z"/><path fill="#B2BCC2" d="M191.974 169.751h6.061v6.061h-6.061z"/><path fill="#fff" d="M198.034 169.751h6.061v6.061h-6.061zM204.095 169.751h6.061v6.061h-6.061z"/><path fill="#fff" d="M210.155 169.751h6.061v6.061h-6.061zM216.216 169.751h6.061v6.061h-6.061z"/><path fill="#fff" d="M222.276 169.751h6.061v6.061h-6.061z"/><path fill="#fff" d="M228.337 169.751h6.061v6.061h-6.061zM234.398 169.751h6.061v6.061h-6.061z"/><path fill="#fff" d="M240.458 169.751h6.061v6.061h-6.061z"/><path fill="#B2BCC2" d="M246.519 169.751h6.061v6.061h-6.061z"/><path fill="#381F31" d="M252.58 169.751h6.061v6.061h-6.061zM246.519 175.812h6.061v6.061h-6.061zM185.913 200.054h6.061v6.061h-6.061zM179.852 206.115h6.061v6.061h-6.061z"/><path fill="#F59051" d="M185.913 206.115h6.061v6.061h-6.061z"/><path fill="#381F31" d="M173.792 212.175h6.061v6.061h-6.061z"/><path fill="#F59051" d="M179.852 212.175h6.061v6.061h-6.061zM185.913 212.175h6.061v6.061h-6.061z"/><path fill="#381F31" d="M173.792 218.236h6.061v6.061h-6.061z"/><path fill="#F59051" d="M179.852 218.236h6.061v6.061h-6.061zM185.913 218.236h6.061v6.061h-6.061z"/><path fill="#F59051" d="M191.973 218.236h6.061v6.061h-6.061zM216.216 218.236h6.061v6.061h-6.061z"/><path fill="#F59051" d="M222.276 218.236h6.061v6.061h-6.061z"/><path fill="#381F31" d="M228.337 218.236h6.061v6.061h-6.061zM167.731 224.297h6.061v6.061h-6.061z"/><path fill="#F55322" d="M173.792 224.297h6.061v6.061h-6.061z"/><path fill="#F55322" d="M179.852 224.297h6.061v6.061h-6.061z"/><path fill="#F59051" d="M185.913 224.297h6.061v6.061h-6.061z"/><path fill="#F59051" d="M191.973 224.297h6.061v6.061h-6.061z"/><path fill="#F59051" d="M198.034 224.297h6.061v6.061h-6.061zM210.155 224.297h6.061v6.061h-6.061zM216.216 224.297h6.061v6.061h-6.061z"/><path fill="#F59051" d="M222.276 224.297h6.061v6.061h-6.061z"/><path fill="#F55322" d="M228.337 224.297h6.061v6.061h-6.061z"/><path fill="#381F31" d="M234.398 224.297h6.061v6.061h-6.061zM167.731 230.357h6.061v6.061h-6.061z"/><path fill="#F55322" d="M173.792 230.357h6.061v6.061h-6.061z"/><path fill="#F55322" d="M179.852 230.357h6.061v6.061h-6.061zM185.913 230.357h6.061v6.061h-6.061z"/><path fill="#F59051" d="M191.973 230.357h6.061v6.061h-6.061z"/><path fill="#F59051" d="M198.034 230.357h6.061v6.061h-6.061z"/><path fill="#fff" d="M204.095 230.357h6.061v6.061h-6.061z"/><path fill="#F59051" d="M210.155 230.357h6.061v6.061h-6.061zM216.216 230.357h6.061v6.061h-6.061z"/><path fill="#F55322" d="M222.276 230.357h6.061v6.061h-6.061z"/><path fill="#F55322" d="M228.337 230.357h6.061v6.061h-6.061z"/><path fill="#381F31" d="M234.398 230.357h6.061v6.061h-6.061zM161.67 236.418h6.061v6.061h-6.061z"/><path fill="#F55322" d="M167.731 236.418h6.061v6.061h-6.061zM173.792 236.418h6.061v6.061h-6.061z"/><path fill="#F55322" d="M179.852 236.418h6.061v6.061h-6.061zM185.913 236.418h6.061v6.061h-6.061z"/><path fill="#F55322" d="M191.973 236.418h6.061v6.061h-6.061z"/><path fill="#F55322" d="M198.034 236.418h6.061v6.061h-6.061z"/><path fill="#fff" d="M204.095 236.418h6.061v6.061h-6.061z"/><path fill="#F55322" d="M210.155 236.418h6.061v6.061h-6.061zM216.216 236.418h6.061v6.061h-6.061z"/><path fill="#F55322" d="M222.276 236.418h6.061v6.061h-6.061z"/><path fill="#F55322" d="M228.337 236.418h6.061v6.061h-6.061zM234.398 236.418h6.061v6.061h-6.061z"/><path fill="#381F31" d="M240.458 236.418h6.061v6.061h-6.061z"/></svg>
