<svg width="166" height="165" fill="none" xmlns="http://www.w3.org/2000/svg"><g filter="url(#prefix__filter0_b_57_143)"><circle cx="83" cy="80" r="80" fill="#fff"/></g><g filter="url(#prefix__filter1_d_57_143)"><path fill-rule="evenodd" clip-rule="evenodd" d="M163 80c0 44.183-35.817 80-80 80S3 124.183 3 80 38.817 0 83 0s80 35.817 80 80zm-91.518-5.36c0-.453-.285-.856-.712-1.006l-54.41-19.18c-.896-.316-.964-1.557-.107-1.968l13.506-6.478c.192-.092.407-.125.618-.093l50.647 7.548c.522.078.91.527.91 1.055v83.879c0 .925-1.097 1.412-1.783.792l-8.318-7.522a1.065 1.065 0 01-.351-.791V74.64zm23.748-1.006c-.427.15-.712.553-.712 1.006v56.236c0 .302-.127.589-.351.791l-8.318 7.522c-.686.62-1.782.133-1.782-.792V54.518c0-.528.387-.977.91-1.055l50.646-7.548c.211-.032.426 0 .618.093l13.506 6.478c.857.411.789 1.652-.106 1.968l-54.41 19.18z" fill="url(#prefix__paint0_linear_57_143)" shape-rendering="crispEdges"/></g><defs><filter id="prefix__filter0_b_57_143" x="-61" y="-64" width="288" height="288" filterUnits="userSpaceOnUse" color-interpolation-filters="sRGB"><feFlood flood-opacity="0" result="BackgroundImageFix"/><feGaussianBlur in="BackgroundImageFix" stdDeviation="32"/><feComposite in2="SourceAlpha" operator="in" result="effect1_backgroundBlur_57_143"/><feBlend in="SourceGraphic" in2="effect1_backgroundBlur_57_143" result="shape"/></filter><filter id="prefix__filter1_d_57_143" x=".714" y="0" width="164.571" height="164.571" filterUnits="userSpaceOnUse" color-interpolation-filters="sRGB"><feFlood flood-opacity="0" result="BackgroundImageFix"/><feColorMatrix in="SourceAlpha" values="0 0 0 0 0 0 0 0 0 0 0 0 0 0 0 0 0 0 127 0" result="hardAlpha"/><feOffset dy="2.286"/><feGaussianBlur stdDeviation="1.143"/><feComposite in2="hardAlpha" operator="out"/><feColorMatrix values="0 0 0 0 0 0 0 0 0 0 0 0 0 0 0 0 0 0 0.25 0"/><feBlend in2="BackgroundImageFix" result="effect1_dropShadow_57_143"/><feBlend in="SourceGraphic" in2="effect1_dropShadow_57_143" result="shape"/></filter><linearGradient id="prefix__paint0_linear_57_143" x1="83" y1="0" x2="83" y2="160" gradientUnits="userSpaceOnUse"><stop stop-color="#03FBBF" stop-opacity=".57"/><stop offset="1" stop-color="#2D46C8" stop-opacity=".98"/></linearGradient></defs></svg>
