<svg width="512" height="96" fill="none" xmlns="http://www.w3.org/2000/svg"><g clip-path="url(#prefix__clip0_87_48831)"><path d="M444.19 25.125c3.088 0 5.978 1.013 8.519 2.922 2.655 1.987 4.101 5.104 4.414 8.845a.205.205 0 01-.127.252l-.108.02h-6.016c-.088 0-.176-.044-.215-.115l-.02-.08c-.704-5.415-7.304-6.896-11.288-4.246-2.775 1.87-3.322 6.156-.664 8.337 1.04.858 2.238 1.542 3.454 2.203l3.217 1.75 2.825 1.449c1.411.725 2.808 1.475 4.137 2.352 4.57 3.039 6.092 7.637 5.27 12.74-.934 5.222-5.544 10.248-14.45 10.248-3.4 0-6.681-.935-9.688-3.195-3.203-2.377-4.375-4.987-4.375-9.702 0-.087.066-.175.148-.213l.086-.02h6.522c.117 0 .235.116.235.233 0 .429.078 1.403.234 1.91.9 2.805 3.476 4.597 6.799 4.792 3.046.195 6.092-1.48 7.264-3.897 1.29-2.649.352-6-2.616-7.83l-.381-.232-1.409-.806-1.7-.93-8.206-4.326-.498-.278-.152-.091c-8.554-5.3-7.108-22.092 8.79-22.092h-.001zm38.987.896c.088 0 .176.066.215.148l.02.086v17.533c0 .156.15.262.29.218l.1-.062 17.227-17.845a.264.264 0 01.09-.066l.067-.012h8.32c.156 0 .262.15.219.29l-.063.1-20.314 21.04a.226.226 0 00-.053.1.228.228 0 000 .113l.053.098 22.578 23.26c.125.094.075.288-.03.381l-.087.049h-8.32l-.078-.025-.078-.054-19.53-20.104c-.094-.125-.288-.075-.362.05l-.03.106v19.793c0 .087-.065.175-.147.213l-.087.02h-6.525c-.087 0-.175-.065-.214-.147l-.02-.086V26.255c0-.088.066-.175.148-.214l.086-.02h6.525zm-331.8-.039c.078 0 .14.018.183.064l.052.092 5.351 17.611a.242.242 0 00.168.166.244.244 0 00.23-.054l.071-.112 5.352-17.61a.288.288 0 01.13-.134l.104-.023h9.883c.088 0 .176.066.214.148l.02.086V71.18c0 .087-.066.175-.148.213l-.086.02h-6.524c-.087 0-.175-.065-.214-.147l-.02-.086V37.01c0-.228-.271-.32-.407-.186l-.062.108-5.39 17.728-.391 1.246a.291.291 0 01-.13.133l-.104.023h-5c-.079 0-.14-.017-.183-.063l-.052-.093-.39-1.246-5.39-17.728c-.066-.195-.348-.2-.44-.039l-.03.117v34.17c0 .087-.066.175-.148.213l-.086.02h-6.524c-.088 0-.176-.065-.214-.147l-.02-.086V26.216c0-.088.066-.175.148-.214l.086-.02h9.961zm189.416 0c.078 0 .139.018.182.064l.052.092 5.353 17.611a.24.24 0 00.063.104.24.24 0 00.226.064.248.248 0 00.108-.056l.072-.112 5.349-17.61a.288.288 0 01.13-.134l.104-.023h9.923c.088 0 .176.066.214.148l.02.086V71.18c0 .087-.065.175-.148.213l-.086.02h-6.522c-.088 0-.176-.065-.214-.147l-.02-.086V37.01c0-.228-.272-.32-.408-.186l-.061.108-5.392 17.728-.39 1.246a.291.291 0 01-.131.133l-.104.023h-5c-.079 0-.14-.017-.183-.063l-.052-.093-.391-1.246-5.388-17.728c-.066-.195-.348-.2-.44-.039l-.03.117v34.17c0 .087-.065.175-.148.213l-.086.02h-6.525c-.088 0-.176-.065-.214-.147l-.02-.086V26.216c0-.088.065-.175.148-.214l.086-.02h9.923zm-72.501 0a.22.22 0 01.22.148l.014.086v5.61c0 .088-.066.176-.148.214l-.086.02h-11.914v39.12c0 .087-.066.175-.149.213l-.086.02h-6.523c-.088 0-.176-.065-.214-.147l-.02-.086V32.06H237.47c-.088 0-.176-.066-.214-.148l-.02-.086v-5.61c0-.089.066-.176.148-.215l.086-.02h30.82l.002.001zm32.148-.156c.079 0 .14.017.183.063l.052.093L312.94 71.1a.254.254 0 01-.126.285l-.108.027h-5.936a.3.3 0 01-.174-.08l-.06-.076-3.555-13.13a.29.29 0 00-.13-.133l-.104-.023H289.62c-.079 0-.14.017-.183.063l-.052.093-3.554 13.13a.29.29 0 01-.13.133l-.105.023h-5.937a.245.245 0 01-.237-.197l.002-.115 12.266-45.118a.286.286 0 01.13-.133l.104-.023h8.516zm101.251 0c.078 0 .139.017.182.063l.053.093L414.19 71.1a.253.253 0 01-.127.285l-.108.027h-5.935a.249.249 0 01-.183-.08l-.052-.076-3.554-13.13a.29.29 0 00-.13-.133l-.105-.023h-13.125c-.078 0-.139.017-.182.063l-.052.093-3.554 13.13a.286.286 0 01-.13.133l-.105.023h-5.938a.245.245 0 01-.237-.197l.002-.115 12.265-45.118a.286.286 0 01.13-.133l.105-.023h8.516zm-182.07.195c.087 0 .175.066.213.148l.02.086v5.61c0 .088-.065.176-.148.214l-.086.02h-19.766c-.088 0-.176.066-.214.148l-.02.086v11.923c0 .087.066.175.148.213l.086.02h17.383c.088 0 .176.066.215.148l.02.086v5.61c0 .088-.066.176-.149.214l-.086.02h-17.383c-.088 0-.176.066-.214.148l-.02.086V64.75c0 .104.035.173.093.22l.102.053h20.625c.088 0 .176.065.215.148l.02.085v5.923c0 .087-.066.175-.148.213l-.087.02h-27.578c-.088 0-.176-.065-.214-.148l-.02-.085V26.255c0-.088.066-.175.148-.214l.086-.02h26.759zm76.797 7.948a.242.242 0 00-.168-.166.244.244 0 00-.23.054l-.071.112-4.766 17.572c-.03.117.03.234.126.285l.108.027h9.532a.247.247 0 00.236-.197l-.002-.115-4.765-17.572zm101.25 0a.242.242 0 00-.168-.166.244.244 0 00-.23.054l-.071.112-4.766 17.572c-.03.117.03.234.126.285l.108.027h9.532a.245.245 0 00.237-.197l-.002-.115-4.766-17.572z" fill="#161616"/><path d="M99.76 0L55.938 32.425l8.149-19.109L99.76 0z" fill="#E17726"/><path d="M2.47.038l35.577 13.28 7.738 19.36L2.47.038zM82.125 68.96l19.368.37-6.77 22.994-23.633-6.507L82.125 68.96zm-62.123 0l10.994 16.857-23.595 6.508L.674 69.328l19.328-.369z" fill="#E27625"/><path d="M44.733 27.747l.792 25.565-23.686-1.078 6.737-10.164.086-.098 16.071-14.225zm12.416-.286l16.316 14.512.085.098 6.737 10.163-23.68 1.078.542-25.851zm-25.46 41.572L44.622 79.11l-15.023 7.253 2.09-17.33zm38.751-.001l2.047 17.33-14.981-7.253L70.44 69.032z" fill="#E27625"/><path d="M57.837 78.16l15.202 7.36-14.141 6.722.147-4.442-1.208-9.64zm-13.551.003l-1.16 9.564.095 4.51-14.174-6.716 15.239-7.358z" fill="#D5BFB2"/><path d="M39.896 56.648l3.973 8.349-13.525-3.962 9.552-4.387zm22.334 0l9.598 4.387-13.569 3.961 3.971-8.347z" fill="#233447"/><path d="M32.723 68.948l-2.186 17.968-11.718-17.575 13.904-.393zm36.682 0l13.905.393-11.762 17.576-2.143-17.969zm11.225-17.73L70.51 61.531l-7.801-3.565-3.736 7.852-2.448-13.503 24.105-1.097zm-59.137 0l24.109 1.097-2.449 13.503-3.736-7.851-7.761 3.564-10.163-10.313z" fill="#CC6228"/><path d="M20.811 49.102L32.259 60.72l.397 11.47-11.845-23.087zm60.517-.02L69.462 72.207l.446-11.489 11.42-11.638zm-36.286.727l.461 2.901 1.139 7.225-.732 22.19L42.449 64.3l-.001-.184 2.594-14.306zm12.037-.04l2.601 14.346-.001.184L56.21 82.17l-.138-4.47-.541-17.897 1.548-10.034z" fill="#E27525"/><path d="M70.926 60.257l-.387 9.965-12.078 9.41-2.441-1.725 2.736-14.097 12.17-3.553zm-39.683.001l12.128 3.553 2.736 14.096-2.441 1.725-12.078-9.41-.345-9.964z" fill="#F5841F"/><path d="M26.736 83.321l15.451 7.321-.065-3.127 1.293-1.134h15.293l1.339 1.131-.099 3.124 15.354-7.297-7.471 6.174-9.034 6.205H43.291l-9.028-6.231-7.527-6.166z" fill="#C0AC9D"/><path d="M56.73 77.186l2.185 1.543 1.28 10.214-1.853-1.564H43.791l-1.818 1.596 1.239-10.245 2.185-1.544H56.73z" fill="#161616"/><path d="M96.867.898l5.26 15.78-3.285 15.956 2.339 1.805-3.165 2.415 2.379 1.837-3.15 2.869 1.934 1.4-5.133 5.995-21.052-6.129-.182-.098-15.17-12.797L96.867.898zM5.26.898L44.486 29.93 29.315 42.728l-.182.098-21.052 6.129-5.132-5.994 1.932-1.4-3.149-2.87 2.375-1.835-3.213-2.422 2.428-1.806L0 16.679 5.26.898z" fill="#763E1A"/><path d="M71.964 41.485L94.27 47.98l7.247 22.334H82.399l-13.174.166 9.58-18.673-6.841-10.322zm-41.801 0L23.32 51.807l9.582 18.673-13.167-.166H.65L7.857 47.98l22.306-6.495zM65.18 13.209L58.94 30.06l-1.324 22.763-.506 7.135-.04 18.227H45.057l-.039-18.193-.508-7.175-1.325-22.757-6.238-16.851H65.18z" fill="#F5841F"/></g><defs><clipPath id="prefix__clip0_87_48831"><path fill="#fff" d="M0 0h512v96H0z"/></clipPath></defs></svg>
