<svg width="369" height="75" fill="none" xmlns="http://www.w3.org/2000/svg"><g filter="url(#prefix__filter0_b_76_48685)"><circle cx="38" cy="36" r="36" fill="#fff"/></g><g filter="url(#prefix__filter1_d_76_48685)"><path fill-rule="evenodd" clip-rule="evenodd" d="M74 36c0 19.882-16.118 36-36 36S2 55.882 2 36 18.118 0 38 0s36 16.118 36 36zm-41.183-2.412a.48.48 0 00-.32-.453l-24.485-8.63a.48.48 0 01-.048-.886l6.077-2.915a.48.48 0 01.279-.042l22.79 3.396a.48.48 0 01.41.475V62.28a.48.48 0 01-.802.356l-3.743-3.385a.48.48 0 01-.158-.356V33.588zm10.687-.453a.48.48 0 00-.32.453v25.306a.48.48 0 01-.159.356l-3.743 3.385a.48.48 0 01-.802-.356V24.533a.48.48 0 01.41-.475l22.79-3.396a.48.48 0 01.279.042l6.077 2.915a.48.48 0 01-.048.885l-24.484 8.631z" fill="url(#prefix__paint0_linear_76_48685)" shape-rendering="crispEdges"/></g><path d="M87.8 16.56h19.84v5.6h-7.16V46h-5.8V22.16H87.8v-5.6zm19.534 20.48c0-1.787.413-3.387 1.24-4.8.853-1.413 2.04-2.52 3.56-3.32 1.52-.827 3.267-1.24 5.24-1.24 2 0 3.733.413 5.2 1.24 1.467.8 2.587 1.907 3.36 3.32.8 1.413 1.2 3.013 1.2 4.8s-.4 3.4-1.2 4.84c-.773 1.413-1.893 2.533-3.36 3.36-1.467.827-3.227 1.24-5.28 1.24-1.92 0-3.64-.373-5.16-1.12a8.431 8.431 0 01-3.52-3.24c-.853-1.413-1.28-3.107-1.28-5.08zm5.64.04c0 .907.187 1.733.56 2.48.373.72.88 1.293 1.52 1.72.64.427 1.36.64 2.16.64.88 0 1.64-.213 2.28-.64.64-.427 1.133-1 1.48-1.72.347-.747.52-1.573.52-2.48 0-.933-.173-1.76-.52-2.48a4.229 4.229 0 00-1.48-1.72c-.64-.427-1.4-.64-2.28-.64-.8 0-1.52.213-2.16.64-.64.427-1.147 1-1.52 1.72s-.56 1.547-.56 2.48zM131.946 46V14.44h5.6V46h-5.6zm10.04-11.88l7.92 11.88h-6.52l-5.08-8.68 3.68-3.2zm-6.12 7.04l-.56-5.32 10.56-7.76 3.4 3-13.4 10.08zm26.486 5.32c-2.133 0-3.947-.4-5.44-1.2-1.467-.8-2.587-1.907-3.36-3.32-.773-1.413-1.16-3.04-1.16-4.88 0-1.76.453-3.347 1.36-4.76.907-1.413 2.12-2.533 3.64-3.36 1.52-.853 3.213-1.28 5.08-1.28 2.507 0 4.56.733 6.16 2.2 1.627 1.44 2.68 3.533 3.16 6.28l-13.6 4.32-1.24-3.04 9.84-3.32-1.16.52a3.965 3.965 0 00-1.16-1.8c-.533-.533-1.347-.8-2.44-.8-.827 0-1.56.2-2.2.6-.613.373-1.093.92-1.44 1.64-.32.693-.48 1.52-.48 2.48 0 1.093.2 2.013.6 2.76.4.72.947 1.267 1.64 1.64s1.467.56 2.32.56c.613 0 1.2-.107 1.76-.32a9.295 9.295 0 001.72-.84l2.48 4.16c-.933.533-1.947.96-3.04 1.28-1.067.32-2.08.48-3.04.48zm18.989-17.96l.44 3.12-.08-.28c.614-1.093 1.48-1.973 2.6-2.64 1.12-.693 2.494-1.04 4.12-1.04 1.654 0 3.027.493 4.12 1.48 1.12.96 1.694 2.213 1.72 3.76V46h-5.6V35c-.026-.773-.24-1.387-.64-1.84-.373-.48-1.013-.72-1.92-.72-.853 0-1.6.28-2.24.84-.64.56-1.133 1.32-1.48 2.28-.346.96-.52 2.067-.52 3.32V46h-5.6V28.52h5.08zm31.398-11.96h19.84v5.6h-7.16V46h-5.8V22.16h-6.88v-5.6zm27.575 11.96l.52 4.8-.12-.72a7.748 7.748 0 012.08-2.64c.88-.747 1.746-1.32 2.6-1.72.88-.4 1.546-.6 2-.6l-.28 5.6c-1.307-.16-2.427.053-3.36.64a6.007 6.007 0 00-2.16 2.32c-.507.96-.76 1.947-.76 2.96V46h-5.56V28.52h5.04zm18.54 17.96c-1.627 0-3.107-.32-4.44-.96-1.307-.667-2.347-1.68-3.12-3.04-.773-1.36-1.16-3.093-1.16-5.2 0-1.973.4-3.68 1.2-5.12.8-1.44 1.853-2.547 3.16-3.32 1.307-.8 2.693-1.2 4.16-1.2 1.733 0 3.04.293 3.92.88.907.56 1.653 1.187 2.24 1.88l-.24.68.52-2.56h5.2V46h-5.6v-3.8l.44 1.2c-.053 0-.213.16-.48.48-.267.293-.667.653-1.2 1.08-.507.4-1.147.747-1.92 1.04-.747.32-1.64.48-2.68.48zm1.6-4.56c.667 0 1.267-.093 1.8-.28.533-.213 1-.507 1.4-.88.4-.4.747-.893 1.04-1.48V35a3.741 3.741 0 00-.96-1.48 4.102 4.102 0 00-1.52-.96c-.587-.24-1.24-.36-1.96-.36-.8 0-1.547.213-2.24.64-.667.4-1.2.96-1.6 1.68-.4.72-.6 1.547-.6 2.48s.213 1.773.64 2.52a4.85 4.85 0 001.68 1.76c.72.427 1.493.64 2.32.64zm30.85 2.52c-.773.613-1.746 1.107-2.92 1.48-1.146.373-2.28.56-3.4.56-2 0-3.746-.36-5.24-1.08-1.466-.747-2.613-1.8-3.44-3.16-.8-1.387-1.2-3.053-1.2-5s.44-3.6 1.32-4.96c.88-1.387 2.027-2.44 3.44-3.16a9.982 9.982 0 014.52-1.08c1.574 0 2.934.213 4.08.64 1.174.427 2.174.987 3 1.68l-2.72 3.6c-.373-.293-.893-.587-1.56-.88-.64-.32-1.4-.48-2.28-.48-.773 0-1.48.2-2.12.6-.64.4-1.146.947-1.52 1.64-.373.693-.56 1.493-.56 2.4 0 .853.2 1.64.6 2.36.4.72.947 1.293 1.64 1.72.72.4 1.56.6 2.52.6.614 0 1.174-.08 1.68-.24.534-.187.987-.44 1.36-.76l2.8 3.52zm6.341-23.6h5.6v7.6h4.24v4.36h-4.24V46h-5.6V32.8h-2.72v-4.36h2.72v-7.6zm14.502 7.68h5.6V46h-5.6V28.52zm-.12-6.2c0-.827.32-1.507.96-2.04.667-.533 1.374-.8 2.12-.8.747 0 1.427.267 2.04.8.64.533.96 1.213.96 2.04s-.32 1.507-.96 2.04c-.613.507-1.293.76-2.04.76-.746 0-1.453-.253-2.12-.76-.64-.533-.96-1.213-.96-2.04zm10.527 14.72c0-1.787.414-3.387 1.24-4.8.854-1.413 2.04-2.52 3.56-3.32 1.52-.827 3.267-1.24 5.24-1.24 2 0 3.734.413 5.2 1.24 1.467.8 2.587 1.907 3.36 3.32.8 1.413 1.2 3.013 1.2 4.8s-.4 3.4-1.2 4.84c-.773 1.413-1.893 2.533-3.36 3.36-1.466.827-3.226 1.24-5.28 1.24-1.92 0-3.64-.373-5.16-1.12a8.437 8.437 0 01-3.52-3.24c-.853-1.413-1.28-3.107-1.28-5.08zm5.64.04c0 .907.187 1.733.56 2.48.374.72.88 1.293 1.52 1.72.64.427 1.36.64 2.16.64.88 0 1.64-.213 2.28-.64.64-.427 1.134-1 1.48-1.72.347-.747.52-1.573.52-2.48 0-.933-.173-1.76-.52-2.48a4.221 4.221 0 00-1.48-1.72c-.64-.427-1.4-.64-2.28-.64-.8 0-1.52.213-2.16.64-.64.427-1.146 1-1.52 1.72-.373.72-.56 1.547-.56 2.48zm24.052-8.56l.44 3.12-.08-.28c.613-1.093 1.48-1.973 2.6-2.64 1.12-.693 2.493-1.04 4.12-1.04 1.653 0 3.027.493 4.12 1.48 1.12.96 1.693 2.213 1.72 3.76V46h-5.6V35c-.027-.773-.24-1.387-.64-1.84-.373-.48-1.013-.72-1.92-.72-.853 0-1.6.28-2.24.84-.64.56-1.133 1.32-1.48 2.28-.347.96-.52 2.067-.52 3.32V46h-5.6V28.52h5.08z" fill="url(#prefix__paint1_linear_76_48685)"/><defs><linearGradient id="prefix__paint0_linear_76_48685" x1="38" y1="0" x2="38" y2="72" gradientUnits="userSpaceOnUse"><stop stop-color="#03FBBF" stop-opacity=".57"/><stop offset="1" stop-color="#2D46C8" stop-opacity=".98"/></linearGradient><linearGradient id="prefix__paint1_linear_76_48685" x1="227.5" y1="16" x2="227.5" y2="56" gradientUnits="userSpaceOnUse"><stop stop-color="#03FBBF" stop-opacity=".57"/><stop offset="1" stop-color="#2D46C8" stop-opacity=".98"/></linearGradient><filter id="prefix__filter0_b_76_48685" x="-26.8" y="-28.8" width="129.6" height="129.6" filterUnits="userSpaceOnUse" color-interpolation-filters="sRGB"><feFlood flood-opacity="0" result="BackgroundImageFix"/><feGaussianBlur in="BackgroundImageFix" stdDeviation="14.4"/><feComposite in2="SourceAlpha" operator="in" result="effect1_backgroundBlur_76_48685"/><feBlend in="SourceGraphic" in2="effect1_backgroundBlur_76_48685" result="shape"/></filter><filter id="prefix__filter1_d_76_48685" x=".971" y="0" width="74.057" height="74.057" filterUnits="userSpaceOnUse" color-interpolation-filters="sRGB"><feFlood flood-opacity="0" result="BackgroundImageFix"/><feColorMatrix in="SourceAlpha" values="0 0 0 0 0 0 0 0 0 0 0 0 0 0 0 0 0 0 127 0" result="hardAlpha"/><feOffset dy="1.029"/><feGaussianBlur stdDeviation=".514"/><feComposite in2="hardAlpha" operator="out"/><feColorMatrix values="0 0 0 0 0 0 0 0 0 0 0 0 0 0 0 0 0 0 0.25 0"/><feBlend in2="BackgroundImageFix" result="effect1_dropShadow_76_48685"/><feBlend in="SourceGraphic" in2="effect1_dropShadow_76_48685" result="shape"/></filter></defs></svg>
